<svg id="Layer_1" data-name="Layer 1" xmlns="http://www.w3.org/2000/svg" xmlns:xlink="http://www.w3.org/1999/xlink" viewBox="0 0 336 198.8"><defs><style>.cls-1{fill:#e5e4e4;}.cls-2{fill:#1d1d1b;}.cls-3{fill:#203b8f;}.cls-4{fill:#3c3c3b;}.cls-5{fill:#0179ba;}</style></defs><title>back student card</title><rect class="cls-1" width="336" height="51.73"/><path class="cls-2" d="M22.09,111.78l.36-2.08h-.71V109h.84l.31-1.78H21.74v-.72H23l.36-2.09H24l-.37,2.09H25l.36-2.09H26l-.37,2.09h.73v.72h-.86L25.16,109h1.17v.72H25l-.37,2.08H24l.36-2.08H23.08l-.36,2.08Zm1.12-2.8h1.32l.31-1.78H23.52Z"/><path class="cls-2" d="M29.22,111.67V110H26.55v-.8l2.81-4.64H30v4.64h.84v.8H30v1.72Zm0-2.52v-3.23l-1.92,3.23Z"/><path class="cls-2" d="M34.44,111.67h-.76v-5.6a4.4,4.4,0,0,1-.7.59,5.16,5.16,0,0,1-.81.47v-.85a4.79,4.79,0,0,0,1.1-.84,3.22,3.22,0,0,0,.68-1h.49Z"/><path class="cls-2" d="M36.49,110l.73-.08q.16,1.14,1,1.14a1.08,1.08,0,0,0,.69-.25,2,2,0,0,0,.53-.88,4.65,4.65,0,0,0,.21-1.47v-.17A1.82,1.82,0,0,1,39,109a1.51,1.51,0,0,1-.82.25,1.68,1.68,0,0,1-1.3-.63,2.54,2.54,0,0,1-.54-1.71,2.58,2.58,0,0,1,.56-1.77,1.75,1.75,0,0,1,1.38-.65,1.79,1.79,0,0,1,1.07.36,2.32,2.32,0,0,1,.77,1.06,5.94,5.94,0,0,1,.27,2,7.2,7.2,0,0,1-.29,2.29,2.56,2.56,0,0,1-.79,1.19,1.85,1.85,0,0,1-1.12.38,1.62,1.62,0,0,1-1.18-.46A2.07,2.07,0,0,1,36.49,110Zm3.1-3.16a1.86,1.86,0,0,0-.36-1.21,1.05,1.05,0,0,0-.83-.44,1.13,1.13,0,0,0-.87.47,1.94,1.94,0,0,0-.38,1.25,1.59,1.59,0,0,0,.37,1.12,1.11,1.11,0,0,0,.87.42,1.07,1.07,0,0,0,.85-.42A1.83,1.83,0,0,0,39.59,106.85Z"/><path class="cls-2" d="M41.6,111.67v-1h.86v1a1.93,1.93,0,0,1-.18.91,1.2,1.2,0,0,1-.52.5l-.21-.37a.84.84,0,0,0,.35-.35,1.72,1.72,0,0,0,.13-.69Z"/><path class="cls-2" d="M46,109.36l.77-.08a2,2,0,0,0,.28.92,1.48,1.48,0,0,0,.62.53,2,2,0,0,0,.91.2,1.71,1.71,0,0,0,1.13-.33,1.1,1.1,0,0,0,.41-.88,1,1,0,0,0-.15-.56,1,1,0,0,0-.44-.38,7.21,7.21,0,0,0-1.27-.43,4.66,4.66,0,0,1-1.25-.5,1.73,1.73,0,0,1-.57-.63,1.77,1.77,0,0,1-.2-.87,1.86,1.86,0,0,1,.58-1.42,2.29,2.29,0,0,1,1.59-.55,2.73,2.73,0,0,1,1.21.26,1.91,1.91,0,0,1,.8.74,2.3,2.3,0,0,1,.3,1.14l-.78.07a1.52,1.52,0,0,0-.44-1,1.56,1.56,0,0,0-1.06-.33,1.65,1.65,0,0,0-1.06.29,1,1,0,0,0-.36.77.85.85,0,0,0,.27.67,3.1,3.1,0,0,0,1.2.48,8.21,8.21,0,0,1,1.28.42,2,2,0,0,1,.85.72,1.94,1.94,0,0,1,.29,1.07,2.08,2.08,0,0,1-.31,1.12,2,2,0,0,1-.82.77,2.81,2.81,0,0,1-1.25.26,2.52,2.52,0,0,1-1.83-.66A2.42,2.42,0,0,1,46,109.36Z"/><path class="cls-2" d="M53.59,110.88l.1.78a2.32,2.32,0,0,1-.56.07,1.28,1.28,0,0,1-.63-.14.75.75,0,0,1-.34-.41,3.77,3.77,0,0,1-.09-1v-3h-.55v-.68h.55V105.2l.76-.53v1.81h.76v.68h-.76v3a1.24,1.24,0,0,0,.07.54.36.36,0,0,0,.36.17Z"/><path class="cls-2" d="M54.54,111.67v-1h.86v1Z"/><path class="cls-2" d="M59.2,111.67v-7.16h2.73a3,3,0,0,1,1.26.2,1.52,1.52,0,0,1,.67.66,2.12,2.12,0,0,1,.26,1.09,1.89,1.89,0,0,1-.44,1.31,2.14,2.14,0,0,1-1.29.64,2.12,2.12,0,0,1,.52.39,4.58,4.58,0,0,1,.64.92l1.08,2h-1l-.83-1.49a7.76,7.76,0,0,0-.72-1.18,1.42,1.42,0,0,0-.47-.41,1.56,1.56,0,0,0-.64-.1H60v3.18Zm.81-4h1.76a2.41,2.41,0,0,0,.87-.13,1.12,1.12,0,0,0,.47-.42,1.3,1.3,0,0,0,.17-.66,1.11,1.11,0,0,0-.33-.85,1.38,1.38,0,0,0-1-.31H60Z"/><path class="cls-2" d="M68.21,111a2.64,2.64,0,0,1-.78.56,2,2,0,0,1-.86.19,1.53,1.53,0,0,1-1.11-.4,1.4,1.4,0,0,1-.41-1.08,1.57,1.57,0,0,1,.19-.79,1.45,1.45,0,0,1,.53-.54,2.91,2.91,0,0,1,1-.29,5.9,5.9,0,0,0,1.35-.31v-.22a.91.91,0,0,0-1.07-1.06,1.33,1.33,0,0,0-.79.2,1.35,1.35,0,0,0-.38.79l-.75-.12a2,2,0,0,1,.65-1.22,2.21,2.21,0,0,1,1.39-.38,2.06,2.06,0,0,1,1.1.26,1.07,1.07,0,0,1,.5.62,4.2,4.2,0,0,1,.11,1.08v1.17A12.29,12.29,0,0,0,69,111a2.08,2.08,0,0,0,.19.63h-.79A2.31,2.31,0,0,1,68.21,111Zm-.06-2a5.28,5.28,0,0,1-1.23.34,2.72,2.72,0,0,0-.67.17.74.74,0,0,0-.29.29.82.82,0,0,0-.11.42.76.76,0,0,0,.24.59,1,1,0,0,0,.67.22,1.32,1.32,0,0,0,.73-.2,1.27,1.27,0,0,0,.5-.53,2.27,2.27,0,0,0,.16-1Z"/><path class="cls-2" d="M73,111.67V111a1.66,1.66,0,0,1-.53.58,1.34,1.34,0,0,1-.7.19,1.69,1.69,0,0,1-1.36-.71,3.06,3.06,0,0,1-.58-2,3.73,3.73,0,0,1,.26-1.5,2,2,0,0,1,.68-.91,1.6,1.6,0,0,1,.95-.3,1.38,1.38,0,0,1,.69.19,1.58,1.58,0,0,1,.53.53v-2.57h.77v7.16Zm-2.4-2.59a2.49,2.49,0,0,0,.37,1.49,1,1,0,0,0,1.69,0,2.29,2.29,0,0,0,.35-1.41,2.75,2.75,0,0,0-.35-1.59,1,1,0,0,0-.89-.5,1,1,0,0,0-.82.48A2.61,2.61,0,0,0,70.59,109.08Z"/><path class="cls-2" d="M77.79,111a2.55,2.55,0,0,1-.79.56,1.92,1.92,0,0,1-.85.19,1.53,1.53,0,0,1-1.11-.4,1.4,1.4,0,0,1-.42-1.08,1.57,1.57,0,0,1,.2-.79,1.45,1.45,0,0,1,.53-.54,2.91,2.91,0,0,1,1-.29,6.19,6.19,0,0,0,1.35-.31v-.22a.91.91,0,0,0-1.07-1.06,1.31,1.31,0,0,0-.79.2,1.35,1.35,0,0,0-.38.79l-.75-.12a2,2,0,0,1,.65-1.22,2.2,2.2,0,0,1,1.38-.38,2,2,0,0,1,1.1.26,1.05,1.05,0,0,1,.51.62,4.28,4.28,0,0,1,.1,1.08v1.17a14.76,14.76,0,0,0,.05,1.55,2.43,2.43,0,0,0,.2.63H78A2.31,2.31,0,0,1,77.79,111Zm-.06-2a5.44,5.44,0,0,1-1.23.34,2.6,2.6,0,0,0-.67.17.76.76,0,0,0-.3.29.82.82,0,0,0-.1.42.76.76,0,0,0,.24.59.93.93,0,0,0,.67.22,1.32,1.32,0,0,0,.73-.2,1.27,1.27,0,0,0,.5-.53,2.27,2.27,0,0,0,.16-1Z"/><path class="cls-2" d="M79.89,111.67v-1h.86v1a2.08,2.08,0,0,1-.17.91,1.22,1.22,0,0,1-.53.5l-.21-.37a.79.79,0,0,0,.35-.35,1.72,1.72,0,0,0,.13-.69Z"/><path class="cls-2" d="M84.56,111.67v-7.16h2.33a4,4,0,0,1,1.21.13,1.69,1.69,0,0,1,.85.69,2.31,2.31,0,0,1,.32,1.24,2.4,2.4,0,0,1-.52,1.58,2.27,2.27,0,0,1-1.79.61H85.38v2.91Zm.82-3.76H87a1.63,1.63,0,0,0,1.11-.32,1.3,1.3,0,0,0,.34-1,1.39,1.39,0,0,0-.17-.73,1,1,0,0,0-.41-.42,2.48,2.48,0,0,0-.88-.11H85.38Z"/><path class="cls-2" d="M90.2,111.67v-7.16H91v2.57a1.89,1.89,0,0,1,.6-.54,1.53,1.53,0,0,1,.74-.18,1.49,1.49,0,0,1,1.13.44,2.31,2.31,0,0,1,.41,1.58v3.29h-.75v-3.29a1.48,1.48,0,0,0-.26-1,.85.85,0,0,0-.69-.29,1.12,1.12,0,0,0-.84.38,2,2,0,0,0-.34,1.33v2.84Z"/><path class="cls-2" d="M97.92,111.67v-.77a1.81,1.81,0,0,1-.62.66,1.46,1.46,0,0,1-.8.22,1.5,1.5,0,0,1-.9-.27,1.28,1.28,0,0,1-.5-.68,3.88,3.88,0,0,1-.13-1.14v-3.21h.76v2.88a4.23,4.23,0,0,0,.08,1.07.84.84,0,0,0,.31.43.9.9,0,0,0,.52.17,1.13,1.13,0,0,0,.9-.43,2.27,2.27,0,0,0,.29-1.34v-2.78h.76v5.19Z"/><path class="cls-2" d="M99.79,111.67v-5.19h.67v.72a1.74,1.74,0,0,1,.58-.62,1.52,1.52,0,0,1,.77-.22,1.37,1.37,0,0,1,.8.23,1.24,1.24,0,0,1,.46.68,2.06,2.06,0,0,1,.62-.68,1.39,1.39,0,0,1,.77-.23,1.28,1.28,0,0,1,1,.42,2,2,0,0,1,.37,1.33v3.56h-.75V108.4a2.37,2.37,0,0,0-.09-.79.67.67,0,0,0-.27-.36.73.73,0,0,0-.43-.13,1,1,0,0,0-.8.37,1.77,1.77,0,0,0-.31,1.16v3h-.75v-3.38a1.5,1.5,0,0,0-.21-.91.7.7,0,0,0-.57-.26,1,1,0,0,0-.82.4,2.52,2.52,0,0,0-.3,1.45v2.7Z"/><path class="cls-2" d="M110.89,111.67v-6.32h-2v-.84h4.88v.84h-2v6.32Z"/><path class="cls-2" d="M117.07,111.67v-.77a1.81,1.81,0,0,1-.62.66,1.44,1.44,0,0,1-.8.22,1.5,1.5,0,0,1-.9-.27,1.34,1.34,0,0,1-.5-.68,4.31,4.31,0,0,1-.12-1.14v-3.21h.75v2.88a4.77,4.77,0,0,0,.08,1.07.89.89,0,0,0,.84.6,1.11,1.11,0,0,0,.89-.43,2.18,2.18,0,0,0,.3-1.34v-2.78h.76v5.19Z"/><path class="cls-2" d="M118.94,111.67v-5.19h.68v.72a1.65,1.65,0,0,1,.58-.62,1.47,1.47,0,0,1,.77-.22,1.34,1.34,0,0,1,.79.23,1.25,1.25,0,0,1,.47.68,2,2,0,0,1,.61-.68,1.39,1.39,0,0,1,.77-.23,1.3,1.3,0,0,1,1,.42,2,2,0,0,1,.37,1.33v3.56h-.76V108.4a2.77,2.77,0,0,0-.08-.79.68.68,0,0,0-.28-.36.73.73,0,0,0-.43-.13,1,1,0,0,0-.8.37,1.83,1.83,0,0,0-.3,1.16v3h-.76v-3.38a1.5,1.5,0,0,0-.21-.91.69.69,0,0,0-.57-.26,1,1,0,0,0-.82.4,2.52,2.52,0,0,0-.3,1.45v2.7Z"/><path class="cls-2" d="M128.58,111.67v-7.16h.84l3.24,5.63v-5.63h.78v7.16h-.84L129.37,106v5.64Z"/><path class="cls-2" d="M137.64,111.67v-.77a1.81,1.81,0,0,1-.62.66,1.44,1.44,0,0,1-.8.22,1.5,1.5,0,0,1-.9-.27,1.34,1.34,0,0,1-.5-.68,4.31,4.31,0,0,1-.12-1.14v-3.21h.75v2.88a4.77,4.77,0,0,0,.08,1.07.81.81,0,0,0,.32.43.85.85,0,0,0,.52.17,1.11,1.11,0,0,0,.89-.43,2.18,2.18,0,0,0,.3-1.34v-2.78h.76v5.19Z"/><path class="cls-2" d="M140.2,111.67h-.7v-7.16h.75v2.55a1.68,1.68,0,0,1,.55-.52,1.3,1.3,0,0,1,.68-.18,1.62,1.62,0,0,1,1,.3,2,2,0,0,1,.68.9,3.65,3.65,0,0,1,.26,1.47,3.16,3.16,0,0,1-.58,2,1.73,1.73,0,0,1-1.36.71,1.29,1.29,0,0,1-.7-.19,1.72,1.72,0,0,1-.53-.57Zm0-2.64a3.67,3.67,0,0,0,.15,1.21,1.29,1.29,0,0,0,.44.61,1,1,0,0,0,.62.21,1,1,0,0,0,.83-.5,2.48,2.48,0,0,0,.37-1.5,2.59,2.59,0,0,0-.35-1.5,1.06,1.06,0,0,0-.86-.47,1,1,0,0,0-.84.5A2.43,2.43,0,0,0,140.19,109Z"/><path class="cls-2" d="M144.51,111.67v-1h.87v1a1.93,1.93,0,0,1-.18.91,1.22,1.22,0,0,1-.53.5l-.21-.37a.79.79,0,0,0,.35-.35,1.72,1.72,0,0,0,.13-.69Z"/><path class="cls-2" d="M22.06,121.36l.77-.08a2.09,2.09,0,0,0,.27.92,1.57,1.57,0,0,0,.63.53,1.93,1.93,0,0,0,.91.2,1.73,1.73,0,0,0,1.13-.33,1.1,1.1,0,0,0,.4-.88,1,1,0,0,0-.14-.56,1.1,1.1,0,0,0-.44-.38,7.11,7.11,0,0,0-1.28-.43,4.71,4.71,0,0,1-1.24-.5,1.65,1.65,0,0,1-.57-.63,1.78,1.78,0,0,1-.21-.87,1.87,1.87,0,0,1,.59-1.42,2.26,2.26,0,0,1,1.59-.55,2.65,2.65,0,0,1,1.2.26,1.85,1.85,0,0,1,.8.74,2.41,2.41,0,0,1,.31,1.14l-.79.07a1.52,1.52,0,0,0-.43-1,1.58,1.58,0,0,0-1.06-.33,1.63,1.63,0,0,0-1.06.29,1,1,0,0,0-.36.77.87.87,0,0,0,.26.67,3.25,3.25,0,0,0,1.2.48,7.52,7.52,0,0,1,1.28.42,2.06,2.06,0,0,1,.86.72,1.94,1.94,0,0,1,.28,1.07,2.16,2.16,0,0,1-.3,1.12,2.09,2.09,0,0,1-.82.77,2.86,2.86,0,0,1-1.26.26,2.5,2.5,0,0,1-1.82-.66A2.38,2.38,0,0,1,22.06,121.36Z"/><path class="cls-2" d="M30.88,123a2.81,2.81,0,0,1-.79.56,2,2,0,0,1-.86.19,1.53,1.53,0,0,1-1.11-.4,1.4,1.4,0,0,1-.41-1.08,1.57,1.57,0,0,1,.19-.79,1.45,1.45,0,0,1,.53-.54,2.91,2.91,0,0,1,1-.29,5.9,5.9,0,0,0,1.35-.31v-.22a.91.91,0,0,0-1.07-1.06,1.33,1.33,0,0,0-.79.2,1.35,1.35,0,0,0-.38.79l-.75-.12a2,2,0,0,1,.65-1.22,2.21,2.21,0,0,1,1.39-.38,2.06,2.06,0,0,1,1.1.26,1.07,1.07,0,0,1,.5.62,4.2,4.2,0,0,1,.11,1.08v1.17a12.29,12.29,0,0,0,.05,1.55,2.08,2.08,0,0,0,.19.63H31A2,2,0,0,1,30.88,123Zm-.07-2a5.28,5.28,0,0,1-1.23.34,2.72,2.72,0,0,0-.67.17.74.74,0,0,0-.29.29.82.82,0,0,0-.11.42.76.76,0,0,0,.24.59,1,1,0,0,0,.67.22,1.32,1.32,0,0,0,.73-.2,1.21,1.21,0,0,0,.5-.53,2.27,2.27,0,0,0,.16-1Z"/><path class="cls-2" d="M32.76,123.67v-5.19h.68v.73a1.66,1.66,0,0,1,.6-.63,1.5,1.5,0,0,1,.82-.22,1.63,1.63,0,0,1,.66.14,1.28,1.28,0,0,1,.49.35,1.4,1.4,0,0,1,.28.56,4.64,4.64,0,0,1,.09,1.07v3.19h-.75v-3.16a2.46,2.46,0,0,0-.11-.84.81.81,0,0,0-.32-.41.92.92,0,0,0-.5-.14,1.08,1.08,0,0,0-.87.39,2.11,2.11,0,0,0-.32,1.32v2.84Z"/><path class="cls-2" d="M37.4,124.1l.73.12a.9.9,0,0,0,.31.62,1.1,1.1,0,0,0,.72.21,1.28,1.28,0,0,0,.79-.23,1.18,1.18,0,0,0,.4-.68,6.36,6.36,0,0,0,.07-1.15,1.91,1.91,0,0,1-.56.51,1.4,1.4,0,0,1-.68.17,1.66,1.66,0,0,1-1.33-.65,3.07,3.07,0,0,1-.6-2,3.88,3.88,0,0,1,.26-1.46,2.09,2.09,0,0,1,.7-.91,1.69,1.69,0,0,1,1-.3,1.39,1.39,0,0,1,.72.19,1.75,1.75,0,0,1,.57.55v-.62h.7V123a5.25,5.25,0,0,1-.2,1.71,1.73,1.73,0,0,1-.68.81,2.1,2.1,0,0,1-1.12.29,1.87,1.87,0,0,1-1.33-.44A1.59,1.59,0,0,1,37.4,124.1ZM38,121a2.46,2.46,0,0,0,.36,1.49,1,1,0,0,0,.86.47,1.07,1.07,0,0,0,.88-.46,2.35,2.35,0,0,0,.36-1.46,2.43,2.43,0,0,0-.37-1.46,1.13,1.13,0,0,0-.9-.47,1,1,0,0,0-.83.47A2.34,2.34,0,0,0,38,121Z"/><path class="cls-2" d="M42.35,123.67v-7.16h.75v4.09l1.8-2.12h1l-1.71,1.93,1.88,3.26h-.93L43.64,121l-.54.6v2.06Z"/><path class="cls-2" d="M49.55,123a2.81,2.81,0,0,1-.79.56,2,2,0,0,1-.85.19,1.54,1.54,0,0,1-1.12-.4,1.43,1.43,0,0,1-.41-1.08,1.57,1.57,0,0,1,.19-.79,1.4,1.4,0,0,1,.54-.54,2.78,2.78,0,0,1,1-.29,6.16,6.16,0,0,0,1.36-.31v-.22a.91.91,0,0,0-1.07-1.06,1.28,1.28,0,0,0-.78.2,1.3,1.3,0,0,0-.39.79l-.74-.12a1.94,1.94,0,0,1,.64-1.22,2.23,2.23,0,0,1,1.39-.38,2,2,0,0,1,1.1.26,1,1,0,0,1,.5.62,4.2,4.2,0,0,1,.11,1.08v1.17a14.76,14.76,0,0,0,0,1.55,2.4,2.4,0,0,0,.19.63H49.7A2,2,0,0,1,49.55,123Zm-.06-2a5.39,5.39,0,0,1-1.24.34,2.72,2.72,0,0,0-.67.17.81.81,0,0,0-.29.29.82.82,0,0,0-.11.42.76.76,0,0,0,.24.59,1,1,0,0,0,.67.22,1.35,1.35,0,0,0,.74-.2,1.25,1.25,0,0,0,.49-.53,2.25,2.25,0,0,0,.17-1Z"/><path class="cls-2" d="M51.43,123.67v-5.19h.68v.79a2.2,2.2,0,0,1,.48-.73.76.76,0,0,1,.49-.18,1.32,1.32,0,0,1,.77.29l-.25.81a1,1,0,0,0-.55-.19.72.72,0,0,0-.44.16.81.81,0,0,0-.28.45,3.74,3.74,0,0,0-.15,1.07v2.72Z"/><path class="cls-2" d="M56,122.88l.1.78a2.44,2.44,0,0,1-.56.07,1.29,1.29,0,0,1-.64-.14.78.78,0,0,1-.33-.41,3.77,3.77,0,0,1-.09-1v-3h-.55v-.68h.55V117.2l.75-.53v1.81H56v.68h-.77v3a1.24,1.24,0,0,0,.07.54.37.37,0,0,0,.36.17Z"/><path class="cls-2" d="M59.19,123.67v-7.16h2.32a4,4,0,0,1,1.21.13,1.69,1.69,0,0,1,.85.69,2.31,2.31,0,0,1,.32,1.24,2.4,2.4,0,0,1-.52,1.58,2.27,2.27,0,0,1-1.79.61H60v2.91Zm.81-3.76h1.6a1.61,1.61,0,0,0,1.1-.32,1.3,1.3,0,0,0,.35-1,1.39,1.39,0,0,0-.18-.73,1,1,0,0,0-.41-.42,2.48,2.48,0,0,0-.88-.11H60Z"/><path class="cls-2" d="M64.83,123.67v-7.16h.75v2.57a1.89,1.89,0,0,1,.6-.54,1.56,1.56,0,0,1,.74-.18,1.49,1.49,0,0,1,1.13.44,2.31,2.31,0,0,1,.41,1.58v3.29h-.75v-3.29a1.55,1.55,0,0,0-.25-1,.89.89,0,0,0-.7-.29,1.1,1.1,0,0,0-.83.38,1.91,1.91,0,0,0-.35,1.33v2.84Z"/><path class="cls-2" d="M69.61,123.67v-5.19h.69v.73a1.66,1.66,0,0,1,.6-.63,1.47,1.47,0,0,1,.81-.22,1.67,1.67,0,0,1,.67.14,1.37,1.37,0,0,1,.49.35,1.4,1.4,0,0,1,.28.56,4.64,4.64,0,0,1,.09,1.07v3.19h-.75v-3.16a2.46,2.46,0,0,0-.11-.84.87.87,0,0,0-.32-.41.92.92,0,0,0-.5-.14,1.08,1.08,0,0,0-.87.39,2.11,2.11,0,0,0-.32,1.32v2.84Z"/><path class="cls-2" d="M74.12,121.07a3,3,0,0,1,.59-2,1.88,1.88,0,0,1,1.5-.69,1.9,1.9,0,0,1,1.49.69,2.88,2.88,0,0,1,.6,2,3.15,3.15,0,0,1-.59,2.08,1.87,1.87,0,0,1-1.5.68,1.93,1.93,0,0,1-1.5-.68A3,3,0,0,1,74.12,121.07Zm.77,0a2.47,2.47,0,0,0,.38,1.5,1.18,1.18,0,0,0,1,.49,1.1,1.1,0,0,0,.91-.5,3.11,3.11,0,0,0,0-3,1.16,1.16,0,0,0-1-.49,1.12,1.12,0,0,0-.92.49A2.46,2.46,0,0,0,74.89,121.07Z"/><path class="cls-2" d="M79.2,123.67v-5.19h.67v.72a1.74,1.74,0,0,1,.58-.62,1.5,1.5,0,0,1,.77-.22,1.37,1.37,0,0,1,.8.23,1.24,1.24,0,0,1,.46.68,2.06,2.06,0,0,1,.62-.68,1.39,1.39,0,0,1,.77-.23,1.28,1.28,0,0,1,1,.42,2,2,0,0,1,.37,1.33v3.56H84.5V120.4a2.37,2.37,0,0,0-.09-.79.67.67,0,0,0-.27-.36.73.73,0,0,0-.43-.13,1,1,0,0,0-.8.37,1.77,1.77,0,0,0-.31,1.16v3h-.75v-3.38a1.5,1.5,0,0,0-.21-.91.7.7,0,0,0-.57-.26,1,1,0,0,0-.82.4A2.52,2.52,0,0,0,80,121v2.7Z"/><path class="cls-2" d="M88.86,123.67v-7.16h2.32a4,4,0,0,1,1.21.13,1.65,1.65,0,0,1,.85.69,2.22,2.22,0,0,1,.32,1.24,2.35,2.35,0,0,1-.52,1.58,2.26,2.26,0,0,1-1.79.61H89.68v2.91Zm.82-3.76h1.59a1.61,1.61,0,0,0,1.1-.32,1.3,1.3,0,0,0,.35-1,1.49,1.49,0,0,0-.17-.73,1,1,0,0,0-.42-.42,2.45,2.45,0,0,0-.88-.11H89.68Z"/><path class="cls-2" d="M97.55,122l.78.11a2.28,2.28,0,0,1-.7,1.25,2.09,2.09,0,0,1-2.8-.26,2.93,2.93,0,0,1-.59-2,3.13,3.13,0,0,1,.59-2.05,1.89,1.89,0,0,1,1.5-.71,1.8,1.8,0,0,1,1.45.7,3.08,3.08,0,0,1,.58,2v.24H95a2.2,2.2,0,0,0,.42,1.32,1.2,1.2,0,0,0,.93.44C96.93,123.06,97.33,122.71,97.55,122Zm-2.49-1.42h2.5a2,2,0,0,0-.31-1,1.13,1.13,0,0,0-1.79-.08A1.75,1.75,0,0,0,95.06,120.58Z"/><path class="cls-2" d="M99.29,123.67v-5.19H100v.73a1.66,1.66,0,0,1,.6-.63,1.5,1.5,0,0,1,.82-.22,1.59,1.59,0,0,1,.66.14,1.27,1.27,0,0,1,.77.91,4.64,4.64,0,0,1,.09,1.07v3.19h-.75v-3.16a2.51,2.51,0,0,0-.1-.84.94.94,0,0,0-.32-.41,1,1,0,0,0-.51-.14,1.05,1.05,0,0,0-.86.39,2,2,0,0,0-.33,1.32v2.84Z"/><path class="cls-2" d="M104.08,123.67v-7.16h.75v2.57a1.89,1.89,0,0,1,.6-.54,1.56,1.56,0,0,1,.74-.18,1.49,1.49,0,0,1,1.13.44,2.26,2.26,0,0,1,.41,1.58v3.29H107v-3.29a1.48,1.48,0,0,0-.25-1,.88.88,0,0,0-.69-.29,1.1,1.1,0,0,0-.84.38,2,2,0,0,0-.35,1.33v2.84Z"/><path class="cls-2" d="M112.8,123.67v-6.32h-2v-.84h4.88v.84h-2v6.32Z"/><path class="cls-2" d="M116.37,123.67v-7.16h.76v2.57a1.7,1.7,0,0,1,.6-.54,1.53,1.53,0,0,1,.74-.18,1.47,1.47,0,0,1,1.12.44,2.25,2.25,0,0,1,.42,1.58v3.29h-.76v-3.29a1.48,1.48,0,0,0-.25-1,.88.88,0,0,0-.69-.29,1.1,1.1,0,0,0-.84.38,2,2,0,0,0-.34,1.33v2.84Z"/><path class="cls-2" d="M121.17,123.67v-5.19h.67v.72a1.74,1.74,0,0,1,.58-.62,1.5,1.5,0,0,1,.77-.22,1.37,1.37,0,0,1,.8.23,1.24,1.24,0,0,1,.46.68,2.06,2.06,0,0,1,.62-.68,1.39,1.39,0,0,1,.77-.23,1.28,1.28,0,0,1,1,.42,2,2,0,0,1,.37,1.33v3.56h-.75V120.4a2.37,2.37,0,0,0-.09-.79.67.67,0,0,0-.27-.36.73.73,0,0,0-.43-.13,1,1,0,0,0-.8.37,1.77,1.77,0,0,0-.31,1.16v3h-.75v-3.38a1.5,1.5,0,0,0-.21-.91.7.7,0,0,0-.57-.26,1,1,0,0,0-.82.4,2.52,2.52,0,0,0-.3,1.45v2.7Z"/><path class="cls-2" d="M131.38,122l.78.11a2.22,2.22,0,0,1-.7,1.25,2.09,2.09,0,0,1-2.8-.26,3,3,0,0,1-.59-2,3.13,3.13,0,0,1,.59-2.05,1.89,1.89,0,0,1,1.5-.71,1.8,1.8,0,0,1,1.45.7,3,3,0,0,1,.58,2v.24h-3.33a2.14,2.14,0,0,0,.43,1.32,1.18,1.18,0,0,0,.92.44C130.77,123.06,131.16,122.71,131.38,122Zm-2.48-1.42h2.49a2,2,0,0,0-.3-1,1.14,1.14,0,0,0-.93-.48,1.12,1.12,0,0,0-.87.4A1.69,1.69,0,0,0,128.9,120.58Z"/><path class="cls-2" d="M133.1,125.66l-.09-.82a1.65,1.65,0,0,0,.43.08.68.68,0,0,0,.4-.1.65.65,0,0,0,.26-.28c0-.05.12-.34.3-.87l-1.7-5.19h.82l.93,3c.12.38.22.78.32,1.2.09-.4.19-.79.31-1.18l.95-3h.76l-1.69,5.27a8.3,8.3,0,0,1-.53,1.37,1.36,1.36,0,0,1-.43.5,1.07,1.07,0,0,1-.56.15A1.18,1.18,0,0,1,133.1,125.66Z"/><path class="cls-2" d="M137,123.67v-1h.86v1a1.93,1.93,0,0,1-.18.91,1.2,1.2,0,0,1-.52.5l-.21-.37a.84.84,0,0,0,.35-.35,1.75,1.75,0,0,0,.12-.69Z"/><path class="cls-2" d="M22.3,135.67v-7.16h.82v3.55l3.06-3.55h1.11l-2.59,2.9,2.7,4.26H26.32l-2.19-3.62-1,1.14v2.48Z"/><path class="cls-2" d="M28,135.67v-7.16h.75v2.57a1.89,1.89,0,0,1,.6-.54,1.56,1.56,0,0,1,.74-.18,1.48,1.48,0,0,1,1.13.44,2.26,2.26,0,0,1,.41,1.58v3.29h-.75v-3.29a1.48,1.48,0,0,0-.25-1,.88.88,0,0,0-.69-.29,1.1,1.1,0,0,0-.84.38,2,2,0,0,0-.35,1.33v2.84Z"/><path class="cls-2" d="M35.66,135a2.55,2.55,0,0,1-.79.56,1.92,1.92,0,0,1-.85.19,1.53,1.53,0,0,1-1.11-.4,1.4,1.4,0,0,1-.41-1.08,1.57,1.57,0,0,1,.19-.79,1.45,1.45,0,0,1,.53-.54,2.91,2.91,0,0,1,1-.29,6.19,6.19,0,0,0,1.35-.31v-.22a.91.91,0,0,0-1.07-1.06,1.33,1.33,0,0,0-.79.2,1.35,1.35,0,0,0-.38.79l-.75-.12a2,2,0,0,1,.65-1.22,2.2,2.2,0,0,1,1.38-.38,2.07,2.07,0,0,1,1.11.26,1.07,1.07,0,0,1,.5.62,4.2,4.2,0,0,1,.11,1.08v1.17c0,.82,0,1.34,0,1.55a2.43,2.43,0,0,0,.2.63h-.79A2.31,2.31,0,0,1,35.66,135Zm-.06-2a5.28,5.28,0,0,1-1.23.34,2.72,2.72,0,0,0-.67.17.81.81,0,0,0-.4.71.76.76,0,0,0,.24.59.93.93,0,0,0,.67.22,1.32,1.32,0,0,0,.73-.2,1.27,1.27,0,0,0,.5-.53,2.27,2.27,0,0,0,.16-1Z"/><path class="cls-2" d="M37.54,135.67v-5.19h.69v.73a1.66,1.66,0,0,1,.6-.63,1.49,1.49,0,0,1,.81-.22,1.67,1.67,0,0,1,.67.14,1.37,1.37,0,0,1,.49.35,1.4,1.4,0,0,1,.28.56,4.64,4.64,0,0,1,.09,1.07v3.19h-.75v-3.16a2.46,2.46,0,0,0-.11-.84.81.81,0,0,0-.32-.41.92.92,0,0,0-.5-.14,1.08,1.08,0,0,0-.87.39,2.11,2.11,0,0,0-.32,1.32v2.84Z"/><path class="cls-2" d="M44.56,133.36l.77-.08a2,2,0,0,0,.28.92,1.48,1.48,0,0,0,.62.53,1.93,1.93,0,0,0,.91.2,1.73,1.73,0,0,0,1.13-.33,1.1,1.1,0,0,0,.41-.88,1,1,0,0,0-.15-.56,1,1,0,0,0-.44-.38,7.11,7.11,0,0,0-1.28-.43,4.71,4.71,0,0,1-1.24-.5,1.73,1.73,0,0,1-.57-.63,1.78,1.78,0,0,1-.21-.87,1.87,1.87,0,0,1,.59-1.42,2.29,2.29,0,0,1,1.59-.55,2.73,2.73,0,0,1,1.21.26,1.91,1.91,0,0,1,.8.74,2.3,2.3,0,0,1,.3,1.14l-.78.07a1.52,1.52,0,0,0-.44-1,1.56,1.56,0,0,0-1.06-.33,1.65,1.65,0,0,0-1.06.29,1,1,0,0,0-.36.77.85.85,0,0,0,.27.67,3.1,3.1,0,0,0,1.19.48,8.05,8.05,0,0,1,1.29.42,2,2,0,0,1,.85.72,1.94,1.94,0,0,1,.28,1.07,2.16,2.16,0,0,1-.3,1.12,2,2,0,0,1-.82.77,2.84,2.84,0,0,1-1.25.26,2.52,2.52,0,0,1-1.83-.66A2.42,2.42,0,0,1,44.56,133.36Z"/><path class="cls-2" d="M53.52,134l.78.11a2.17,2.17,0,0,1-.71,1.25,2.08,2.08,0,0,1-2.79-.26,2.93,2.93,0,0,1-.59-2,3.13,3.13,0,0,1,.59-2.05,1.89,1.89,0,0,1,1.5-.71,1.8,1.8,0,0,1,1.45.7,3.08,3.08,0,0,1,.58,2v.24H51a2.2,2.2,0,0,0,.42,1.32,1.2,1.2,0,0,0,.93.44C52.9,135.06,53.3,134.71,53.52,134ZM51,132.58h2.5a2,2,0,0,0-.31-1,1.13,1.13,0,0,0-1.79-.08A1.75,1.75,0,0,0,51,132.58Z"/><path class="cls-2" d="M55.26,135.67v-5.19h.68v.73a1.74,1.74,0,0,1,.6-.63,1.5,1.5,0,0,1,.82-.22,1.59,1.59,0,0,1,.66.14,1.27,1.27,0,0,1,.77.91,4.64,4.64,0,0,1,.09,1.07v3.19h-.75v-3.16a2.51,2.51,0,0,0-.1-.84.94.94,0,0,0-.32-.41,1,1,0,0,0-.51-.14,1.05,1.05,0,0,0-.86.39,2,2,0,0,0-.33,1.32v2.84Z"/><path class="cls-2" d="M59.75,134.11l.76-.13a1.21,1.21,0,0,0,.36.81,1.13,1.13,0,0,0,.79.27,1.15,1.15,0,0,0,.76-.23.75.75,0,0,0,.27-.59.59.59,0,0,0-.23-.48,3.26,3.26,0,0,0-.77-.29,5.62,5.62,0,0,1-1.18-.44,1.25,1.25,0,0,1-.46-.48,1.44,1.44,0,0,1-.17-.69,1.41,1.41,0,0,1,.45-1.08,1.73,1.73,0,0,1,1.23-.42,2.16,2.16,0,0,1,.88.17A1.5,1.5,0,0,1,63,131a2,2,0,0,1,.27.83l-.74.12a.86.86,0,0,0-1-.85,1.23,1.23,0,0,0-.73.18.6.6,0,0,0-.24.48.56.56,0,0,0,.23.46,5.36,5.36,0,0,0,.82.31,6.53,6.53,0,0,1,1.22.45,1.12,1.12,0,0,1,.43.46,1.47,1.47,0,0,1,.15.69,1.54,1.54,0,0,1-.49,1.2,1.89,1.89,0,0,1-1.35.46A1.73,1.73,0,0,1,59.75,134.11Z"/><path class="cls-2" d="M64.07,133.07a3,3,0,0,1,.59-2,1.88,1.88,0,0,1,1.5-.69,1.9,1.9,0,0,1,1.49.69,2.88,2.88,0,0,1,.6,2,3.15,3.15,0,0,1-.59,2.08,1.87,1.87,0,0,1-1.5.68,1.93,1.93,0,0,1-1.5-.68A3.05,3.05,0,0,1,64.07,133.07Zm.77,0a2.4,2.4,0,0,0,.39,1.5,1.14,1.14,0,0,0,1,.49,1.1,1.1,0,0,0,.91-.5,3,3,0,0,0,0-3,1.16,1.16,0,0,0-1-.49,1.12,1.12,0,0,0-.92.49A2.46,2.46,0,0,0,64.84,133.07Z"/><path class="cls-2" d="M69.16,135.67v-7.16h.75v4.09l1.8-2.12h1L71,132.41l1.88,3.26h-.93L70.45,133l-.54.6v2.06Z"/><path class="cls-2" d="M73.67,135.67v-1h.86v1a1.93,1.93,0,0,1-.18.91,1.2,1.2,0,0,1-.52.5l-.21-.37a.84.84,0,0,0,.35-.35,1.72,1.72,0,0,0,.13-.69Z"/><path class="cls-2" d="M78.34,135.67v-7.16h2.32a4,4,0,0,1,1.21.13,1.65,1.65,0,0,1,.85.69,2.22,2.22,0,0,1,.32,1.24,2.35,2.35,0,0,1-.52,1.58,2.26,2.26,0,0,1-1.79.61H79.16v2.91Zm.82-3.76h1.59a1.61,1.61,0,0,0,1.1-.32,1.3,1.3,0,0,0,.35-1,1.49,1.49,0,0,0-.17-.73,1,1,0,0,0-.42-.42,2.45,2.45,0,0,0-.88-.11H79.16Z"/><path class="cls-2" d="M84,135.67v-7.16h.75v2.57a1.82,1.82,0,0,1,.61-.54,1.53,1.53,0,0,1,.74-.18,1.47,1.47,0,0,1,1.12.44,2.26,2.26,0,0,1,.41,1.58v3.29h-.75v-3.29a1.48,1.48,0,0,0-.25-1,.88.88,0,0,0-.69-.29,1.1,1.1,0,0,0-.84.38,2,2,0,0,0-.35,1.33v2.84Z"/><path class="cls-2" d="M88.77,135.67v-5.19h.68v.73a1.66,1.66,0,0,1,.6-.63,1.5,1.5,0,0,1,.82-.22,1.59,1.59,0,0,1,.66.14,1.27,1.27,0,0,1,.77.91,4.64,4.64,0,0,1,.09,1.07v3.19h-.75v-3.16a2.51,2.51,0,0,0-.1-.84.94.94,0,0,0-.32-.41,1,1,0,0,0-.51-.14,1.05,1.05,0,0,0-.86.39,2,2,0,0,0-.33,1.32v2.84Z"/><path class="cls-2" d="M93.27,133.07a3,3,0,0,1,.59-2,1.91,1.91,0,0,1,1.5-.69,1.89,1.89,0,0,1,1.49.69,2.88,2.88,0,0,1,.6,2,3.09,3.09,0,0,1-.59,2.08,1.87,1.87,0,0,1-1.5.68,1.91,1.91,0,0,1-1.49-.68A3,3,0,0,1,93.27,133.07Zm.77,0a2.4,2.4,0,0,0,.39,1.5,1.14,1.14,0,0,0,.95.49,1.12,1.12,0,0,0,.92-.5,2.44,2.44,0,0,0,.38-1.49,2.37,2.37,0,0,0-.39-1.49,1.14,1.14,0,0,0-1-.49,1.13,1.13,0,0,0-.92.49A2.46,2.46,0,0,0,94,133.07Z"/><path class="cls-2" d="M98.35,135.67v-5.19H99v.72a1.65,1.65,0,0,1,.58-.62,1.47,1.47,0,0,1,.77-.22,1.34,1.34,0,0,1,.79.23,1.25,1.25,0,0,1,.47.68,2,2,0,0,1,.61-.68,1.39,1.39,0,0,1,.77-.23,1.3,1.3,0,0,1,1,.42,2,2,0,0,1,.37,1.33v3.56h-.76V132.4a2.77,2.77,0,0,0-.08-.79.68.68,0,0,0-.28-.36.73.73,0,0,0-.43-.13,1,1,0,0,0-.8.37,1.83,1.83,0,0,0-.3,1.16v3H101v-3.38a1.5,1.5,0,0,0-.21-.91.69.69,0,0,0-.57-.26,1,1,0,0,0-.82.4,2.61,2.61,0,0,0-.3,1.45v2.7Z"/><path class="cls-2" d="M108,135.67v-7.16h2.33a4,4,0,0,1,1.21.13,1.69,1.69,0,0,1,.85.69,2.31,2.31,0,0,1,.32,1.24,2.4,2.4,0,0,1-.52,1.58,2.27,2.27,0,0,1-1.79.61h-1.58v2.91Zm.82-3.76h1.59a1.63,1.63,0,0,0,1.11-.32,1.3,1.3,0,0,0,.35-1,1.39,1.39,0,0,0-.18-.73,1,1,0,0,0-.41-.42,2.48,2.48,0,0,0-.88-.11h-1.58Z"/><path class="cls-2" d="M116.71,134l.77.11a2.22,2.22,0,0,1-.7,1.25,1.92,1.92,0,0,1-1.26.42,1.94,1.94,0,0,1-1.54-.68,3,3,0,0,1-.59-2,3.08,3.08,0,0,1,.6-2.05,1.86,1.86,0,0,1,1.49-.71,1.8,1.8,0,0,1,1.45.7,3,3,0,0,1,.58,2v.24h-3.33a2.14,2.14,0,0,0,.43,1.32,1.18,1.18,0,0,0,.92.44C116.09,135.06,116.48,134.71,116.71,134Zm-2.49-1.42h2.49a1.86,1.86,0,0,0-.3-1,1.14,1.14,0,0,0-1.8-.08A1.69,1.69,0,0,0,114.22,132.58Z"/><path class="cls-2" d="M118.44,135.67v-5.19h.69v.73a1.66,1.66,0,0,1,.6-.63,1.47,1.47,0,0,1,.81-.22,1.67,1.67,0,0,1,.67.14,1.37,1.37,0,0,1,.49.35,1.4,1.4,0,0,1,.28.56,4.64,4.64,0,0,1,.09,1.07v3.19h-.76v-3.16a2.51,2.51,0,0,0-.1-.84.87.87,0,0,0-.32-.41.92.92,0,0,0-.5-.14,1.07,1.07,0,0,0-.87.39,2,2,0,0,0-.32,1.32v2.84Z"/><path class="cls-2" d="M123.23,135.67v-7.16H124v2.57a1.7,1.7,0,0,1,.6-.54,1.53,1.53,0,0,1,.74-.18,1.47,1.47,0,0,1,1.12.44,2.25,2.25,0,0,1,.42,1.58v3.29h-.76v-3.29a1.48,1.48,0,0,0-.25-1,.88.88,0,0,0-.69-.29,1.1,1.1,0,0,0-.84.38,2,2,0,0,0-.34,1.33v2.84Z"/><path class="cls-2" d="M128.24,135.67v-1h.86v1a1.93,1.93,0,0,1-.18.91,1.2,1.2,0,0,1-.52.5l-.21-.37a.84.84,0,0,0,.35-.35,1.72,1.72,0,0,0,.13-.69Z"/><path class="cls-2" d="M137.29,133.16l.82.24a3.3,3.3,0,0,1-1,1.8,2.44,2.44,0,0,1-1.65.59,2.59,2.59,0,0,1-1.47-.4,2.83,2.83,0,0,1-1-1.28,5.06,5.06,0,0,1-.39-2.07,4.6,4.6,0,0,1,.39-2,2.88,2.88,0,0,1,1-1.24,2.69,2.69,0,0,1,1.48-.42,2.35,2.35,0,0,1,1.53.53,2.8,2.8,0,0,1,.9,1.55l-.8.22c-.28-1-.83-1.49-1.65-1.49a1.89,1.89,0,0,0-1.07.3,2,2,0,0,0-.72.94,4.13,4.13,0,0,0-.27,1.61,3.7,3.7,0,0,0,.54,2.2,1.73,1.73,0,0,0,1.45.74,1.63,1.63,0,0,0,1.15-.45A2.45,2.45,0,0,0,137.29,133.16Z"/><path class="cls-2" d="M141.93,135a2.67,2.67,0,0,1-.79.56,2,2,0,0,1-.85.19,1.5,1.5,0,0,1-1.11-.4,1.4,1.4,0,0,1-.42-1.08,1.57,1.57,0,0,1,.2-.79,1.38,1.38,0,0,1,.53-.54,2.84,2.84,0,0,1,1-.29,6.16,6.16,0,0,0,1.36-.31v-.22a1.05,1.05,0,0,0-.2-.75,1.08,1.08,0,0,0-.86-.31,1,1,0,0,0-1.18,1l-.74-.12a2,2,0,0,1,.64-1.22,2.25,2.25,0,0,1,1.39-.38,2,2,0,0,1,1.1.26,1.05,1.05,0,0,1,.51.62,4.28,4.28,0,0,1,.1,1.08v1.17a14.76,14.76,0,0,0,.05,1.55,2.4,2.4,0,0,0,.19.63h-.79A2,2,0,0,1,141.93,135Zm-.06-2a5.39,5.39,0,0,1-1.24.34,2.5,2.5,0,0,0-.66.17.76.76,0,0,0-.3.29.82.82,0,0,0-.1.42.76.76,0,0,0,.24.59.92.92,0,0,0,.66.22,1.35,1.35,0,0,0,.74-.2,1.25,1.25,0,0,0,.49-.53,2.25,2.25,0,0,0,.17-1Z"/><path class="cls-2" d="M143.82,135.67v-5.19h.67v.72a1.74,1.74,0,0,1,.58-.62,1.52,1.52,0,0,1,.77-.22,1.37,1.37,0,0,1,.8.23,1.24,1.24,0,0,1,.46.68,2.06,2.06,0,0,1,.62-.68,1.39,1.39,0,0,1,.77-.23,1.28,1.28,0,0,1,1,.42,2,2,0,0,1,.37,1.33v3.56h-.75V132.4a2.37,2.37,0,0,0-.09-.79.67.67,0,0,0-.27-.36.73.73,0,0,0-.43-.13,1,1,0,0,0-.8.37,1.77,1.77,0,0,0-.31,1.16v3h-.75v-3.38a1.5,1.5,0,0,0-.21-.91.7.7,0,0,0-.57-.26,1,1,0,0,0-.82.4,2.52,2.52,0,0,0-.3,1.45v2.7Z"/><path class="cls-2" d="M151.68,135.67H151v-7.16h.76v2.55a1.68,1.68,0,0,1,.55-.52,1.3,1.3,0,0,1,.68-.18,1.62,1.62,0,0,1,.95.3,2,2,0,0,1,.68.9,3.83,3.83,0,0,1,.26,1.47,3.16,3.16,0,0,1-.58,2,1.73,1.73,0,0,1-1.36.71,1.29,1.29,0,0,1-.7-.19,1.72,1.72,0,0,1-.53-.57Zm0-2.64a3.67,3.67,0,0,0,.15,1.21,1.29,1.29,0,0,0,.44.61,1,1,0,0,0,.62.21,1,1,0,0,0,.83-.5,2.48,2.48,0,0,0,.37-1.5,2.59,2.59,0,0,0-.35-1.5,1.06,1.06,0,0,0-.86-.47,1,1,0,0,0-.84.5A2.43,2.43,0,0,0,151.67,133Z"/><path class="cls-2" d="M155.49,133.07a3,3,0,0,1,.59-2,1.88,1.88,0,0,1,1.5-.69,1.9,1.9,0,0,1,1.49.69,2.88,2.88,0,0,1,.6,2,3.15,3.15,0,0,1-.59,2.08,1.87,1.87,0,0,1-1.5.68,1.93,1.93,0,0,1-1.5-.68A3,3,0,0,1,155.49,133.07Zm.77,0a2.47,2.47,0,0,0,.38,1.5,1.18,1.18,0,0,0,1,.49,1.1,1.1,0,0,0,.91-.5,3,3,0,0,0,0-3,1.16,1.16,0,0,0-.95-.49,1.12,1.12,0,0,0-.92.49A2.46,2.46,0,0,0,156.26,133.07Z"/><path class="cls-2" d="M163.45,135.67V135a1.49,1.49,0,0,1-.53.58,1.28,1.28,0,0,1-.69.19,1.71,1.71,0,0,1-1.37-.71,3.11,3.11,0,0,1-.58-2,3.91,3.91,0,0,1,.26-1.5,2,2,0,0,1,.68-.91,1.62,1.62,0,0,1,.95-.3,1.44,1.44,0,0,1,.7.19,1.58,1.58,0,0,1,.53.53v-2.57h.76v7.16Zm-2.39-2.59a2.5,2.5,0,0,0,.36,1.49,1,1,0,0,0,1.7,0,2.36,2.36,0,0,0,.35-1.41,2.84,2.84,0,0,0-.35-1.59,1.06,1.06,0,0,0-.9-.5,1,1,0,0,0-.82.48A2.61,2.61,0,0,0,161.06,133.08Z"/><path class="cls-2" d="M165.35,129.52v-1h.75v1Zm0,6.15v-5.19h.75v5.19Z"/><path class="cls-2" d="M170.17,135a2.67,2.67,0,0,1-.79.56,2,2,0,0,1-.85.19,1.5,1.5,0,0,1-1.11-.4,1.4,1.4,0,0,1-.42-1.08,1.57,1.57,0,0,1,.2-.79,1.38,1.38,0,0,1,.53-.54,2.84,2.84,0,0,1,1-.29,6.16,6.16,0,0,0,1.36-.31v-.22a1.05,1.05,0,0,0-.2-.75,1.09,1.09,0,0,0-.86-.31,1,1,0,0,0-1.18,1l-.74-.12a1.94,1.94,0,0,1,.64-1.22,2.23,2.23,0,0,1,1.39-.38,2,2,0,0,1,1.1.26,1.05,1.05,0,0,1,.51.62,4.28,4.28,0,0,1,.1,1.08v1.17a14.76,14.76,0,0,0,0,1.55,2.4,2.4,0,0,0,.19.63h-.79A2,2,0,0,1,170.17,135Zm-.06-2a5.39,5.39,0,0,1-1.24.34,2.5,2.5,0,0,0-.66.17.76.76,0,0,0-.3.29.82.82,0,0,0-.1.42.76.76,0,0,0,.24.59.92.92,0,0,0,.66.22,1.35,1.35,0,0,0,.74-.2,1.25,1.25,0,0,0,.49-.53,2.25,2.25,0,0,0,.17-1Z"/><path class="cls-3" d="M68.73,35.7a3,3,0,0,1,.78-2.25,2.57,2.57,0,0,1,1.93-.79A2.73,2.73,0,0,1,72.8,33a2.58,2.58,0,0,1,1,1,3.34,3.34,0,0,1,.36,1.6,3,3,0,0,1-.69,2.07,2.69,2.69,0,0,1-4,0A3,3,0,0,1,68.73,35.7Zm.77,0a2.28,2.28,0,0,0,.56,1.64,1.9,1.9,0,0,0,2.75,0,2.46,2.46,0,0,0,.55-1.74,3,3,0,0,0-.28-1.32,1.64,1.64,0,0,0-.67-.71,1.82,1.82,0,0,0-1-.27,1.79,1.79,0,0,0-1.39.59A2.59,2.59,0,0,0,69.5,35.71Z"/><path class="cls-3" d="M75.13,38.49V32.76h3.81v.68H75.88v1.77h2.65v.68H75.88v2.6Z"/><path class="cls-3" d="M80,38.49V32.76h3.81v.68H80.7v1.77h2.65v.68H80.7v2.6Z"/><path class="cls-3" d="M84.86,38.49V32.76h.75v5.73Z"/><path class="cls-3" d="M90.92,36.48l.75.19a2.6,2.6,0,0,1-.87,1.44,2.42,2.42,0,0,1-1.52.48,2.68,2.68,0,0,1-1.34-.32,2.41,2.41,0,0,1-.91-1,3.77,3.77,0,0,1-.35-1.67A3.41,3.41,0,0,1,87,34a2.54,2.54,0,0,1,1-1,2.82,2.82,0,0,1,1.36-.33,2.34,2.34,0,0,1,1.4.42,2.22,2.22,0,0,1,.83,1.24l-.74.18a1.49,1.49,0,0,0-1.51-1.19,1.89,1.89,0,0,0-1,.24,1.7,1.7,0,0,0-.67.75,3,3,0,0,0-.24,1.28,2.63,2.63,0,0,0,.5,1.77,1.65,1.65,0,0,0,1.32.59,1.59,1.59,0,0,0,1-.36A1.82,1.82,0,0,0,90.92,36.48Z"/><path class="cls-3" d="M92.75,38.49V32.76h.74v5.73Z"/><path class="cls-3" d="M94.18,38.49l2.18-5.73h.79l2.32,5.73h-.86L98,36.75H95.58L95,38.49Zm1.62-2.35h1.92l-.59-1.59c-.18-.49-.31-.88-.39-1.19a8.57,8.57,0,0,1-.31,1.1Z"/><path class="cls-3" d="M100,38.49V32.76h.75v5.05h2.78v.68Z"/><path class="cls-3" d="M110.36,36.48l.75.19a2.6,2.6,0,0,1-.87,1.44,2.42,2.42,0,0,1-1.52.48,2.68,2.68,0,0,1-1.34-.32,2.41,2.41,0,0,1-.91-1,3.64,3.64,0,0,1-.35-1.67,3.41,3.41,0,0,1,.35-1.6,2.54,2.54,0,0,1,1-1,2.82,2.82,0,0,1,1.36-.33,2.34,2.34,0,0,1,1.4.42,2.27,2.27,0,0,1,.83,1.24l-.74.18a1.49,1.49,0,0,0-1.51-1.19,2,2,0,0,0-1,.24,1.75,1.75,0,0,0-.66.75,3,3,0,0,0-.24,1.28,2.69,2.69,0,0,0,.49,1.77,1.68,1.68,0,0,0,1.33.59,1.59,1.59,0,0,0,1.05-.36A1.82,1.82,0,0,0,110.36,36.48Z"/><path class="cls-3" d="M112,38.49V32.76h2.5a3.08,3.08,0,0,1,1.16.16,1.41,1.41,0,0,1,.61.53,1.58,1.58,0,0,1,.24.87,1.42,1.42,0,0,1-.4,1,2,2,0,0,1-1.19.51,2,2,0,0,1,.48.32,3.78,3.78,0,0,1,.59.73l1,1.56h-.94l-.75-1.19a7.32,7.32,0,0,0-.67-.94,1.13,1.13,0,0,0-.43-.33,1.52,1.52,0,0,0-.58-.08h-.86v2.54Zm.75-3.2h1.6a2.32,2.32,0,0,0,.8-.11.89.89,0,0,0,.43-.33.88.88,0,0,0,.16-.53.85.85,0,0,0-.3-.68,1.47,1.47,0,0,0-.91-.25h-1.78Z"/><path class="cls-3" d="M117.75,38.49V32.76h4.08v.68H118.5v1.75h3.12v.67H118.5v2H122v.68Z"/><path class="cls-3" d="M123,38.49V32.76h2a4.23,4.23,0,0,1,1.09.11,1.92,1.92,0,0,1,.86.5,2.38,2.38,0,0,1,.56.91,3.71,3.71,0,0,1,.21,1.31,3.59,3.59,0,0,1-.35,1.65,2.1,2.1,0,0,1-.88,1,3.14,3.14,0,0,1-1.4.28Zm.74-.68h1.21a2.47,2.47,0,0,0,1.1-.19,1.4,1.4,0,0,0,.58-.64,3.28,3.28,0,0,0,.27-1.39,2.76,2.76,0,0,0-.29-1.37,1.38,1.38,0,0,0-.73-.67,3.1,3.1,0,0,0-1-.11h-1.19Z"/><path class="cls-3" d="M128.7,38.49V32.76h4.08v.68h-3.33v1.75h3.12v.67h-3.12v2h3.47v.68Z"/><path class="cls-3" d="M133.92,38.49V32.76h.77l3,4.51V32.76h.71v5.73h-.76l-3-4.51v4.51Z"/><path class="cls-3" d="M141.09,38.49V33.44h-1.86v-.68h4.47v.68h-1.87v5.05Z"/><path class="cls-3" d="M144.6,38.49V32.76h.75v5.73Z"/><path class="cls-3" d="M146,38.49l2.18-5.73h.8l2.31,5.73h-.85l-.66-1.74h-2.38l-.61,1.74Zm1.62-2.35h1.93L149,34.55c-.18-.49-.32-.88-.4-1.19a7.21,7.21,0,0,1-.31,1.1Z"/><path class="cls-3" d="M151.87,38.49V32.76h.74v5.05h2.78v.68Z"/><path class="cls-3" d="M158,35.7a3,3,0,0,1,.78-2.25,2.59,2.59,0,0,1,1.93-.79,2.73,2.73,0,0,1,1.36.35,2.6,2.6,0,0,1,1,1,3.47,3.47,0,0,1,.36,1.6,3,3,0,0,1-.7,2.07,2.69,2.69,0,0,1-4,0A3,3,0,0,1,158,35.7Zm.77,0a2.24,2.24,0,0,0,.57,1.64,1.8,1.8,0,0,0,1.36.59,1.83,1.83,0,0,0,1.38-.59,2.46,2.46,0,0,0,.55-1.74,3,3,0,0,0-.28-1.32,1.64,1.64,0,0,0-.67-.71,1.91,1.91,0,0,0-2.36.32A2.59,2.59,0,0,0,158.76,35.71Z"/><path class="cls-3" d="M164.4,38.49V32.76h3.8v.68h-3.06v1.77h2.65v.68h-2.65v2.6Z"/><path class="cls-3" d="M175.36,36.48l.75.19a2.5,2.5,0,0,1-.87,1.44,2.39,2.39,0,0,1-1.51.48,2.66,2.66,0,0,1-1.34-.32,2.34,2.34,0,0,1-.91-1,3.64,3.64,0,0,1-.36-1.67,3.29,3.29,0,0,1,.36-1.6,2.41,2.41,0,0,1,1-1,2.75,2.75,0,0,1,1.35-.33,2.37,2.37,0,0,1,1.41.42,2.26,2.26,0,0,1,.82,1.24l-.73.18a1.5,1.5,0,0,0-1.51-1.19,1.9,1.9,0,0,0-1,.24,1.63,1.63,0,0,0-.66.75,2.86,2.86,0,0,0-.25,1.28,2.69,2.69,0,0,0,.5,1.77,1.76,1.76,0,0,0,2.38.23A1.86,1.86,0,0,0,175.36,36.48Z"/><path class="cls-3" d="M176.43,38.49l2.18-5.73h.79l2.32,5.73h-.86l-.65-1.74h-2.38l-.61,1.74Zm1.62-2.35H180l-.59-1.59c-.18-.49-.31-.88-.39-1.19a8.57,8.57,0,0,1-.31,1.1Z"/><path class="cls-3" d="M182.28,38.49V32.76h1.13l1.34,4.06.27.84c.06-.21.16-.51.3-.91l1.35-4h1v5.73H187V33.7l-1.65,4.79h-.67L183,33.62v4.87Z"/><path class="cls-3" d="M188.85,38.49V32.76H191a2.57,2.57,0,0,1,1,.17,1.46,1.46,0,0,1,.62.51,1.38,1.38,0,0,1,.24.78,1.26,1.26,0,0,1-.21.71,1.52,1.52,0,0,1-.58.51,1.54,1.54,0,0,1,.77.51,1.35,1.35,0,0,1,.28.88,1.64,1.64,0,0,1-.25.91,1.48,1.48,0,0,1-.69.57,3.05,3.05,0,0,1-1.17.18Zm.75-3.32h1.22a2.64,2.64,0,0,0,.68-.06.78.78,0,0,0,.45-.27.8.8,0,0,0,.16-.53.93.93,0,0,0-.14-.51.73.73,0,0,0-.39-.28,2.76,2.76,0,0,0-.85-.08H189.6Zm0,2.64H191a2.38,2.38,0,0,0,.69-.07,1,1,0,0,0,.49-.33,1,1,0,0,0,.16-.59.89.89,0,0,0-.59-.87,2.48,2.48,0,0,0-.85-.11h-1.3Z"/><path class="cls-3" d="M193.93,35.7a3,3,0,0,1,.77-2.25,2.59,2.59,0,0,1,1.93-.79A2.73,2.73,0,0,1,198,33a2.6,2.6,0,0,1,1,1,3.34,3.34,0,0,1,.36,1.6,3,3,0,0,1-.7,2.07,2.53,2.53,0,0,1-2,.89,2.49,2.49,0,0,1-2-.91A3,3,0,0,1,193.93,35.7Zm.77,0a2.24,2.24,0,0,0,.56,1.64,1.89,1.89,0,0,0,2.74,0,2.46,2.46,0,0,0,.56-1.74,3,3,0,0,0-.29-1.32,1.68,1.68,0,0,0-.66-.71,1.84,1.84,0,0,0-1-.27,1.81,1.81,0,0,0-1.4.59A2.59,2.59,0,0,0,194.7,35.71Z"/><path class="cls-3" d="M200.26,38.49V32.76h2a4.32,4.32,0,0,1,1.1.11,1.94,1.94,0,0,1,.85.5,2.38,2.38,0,0,1,.56.91,3.71,3.71,0,0,1,.21,1.31,3.59,3.59,0,0,1-.35,1.65,2.1,2.1,0,0,1-.88,1,3.11,3.11,0,0,1-1.4.28Zm.74-.68h1.21a2.47,2.47,0,0,0,1.1-.19,1.4,1.4,0,0,0,.58-.64,3.28,3.28,0,0,0,.27-1.39,2.76,2.76,0,0,0-.29-1.37,1.38,1.38,0,0,0-.73-.67,3.1,3.1,0,0,0-.95-.11H201Z"/><path class="cls-3" d="M206.11,38.49V32.76h.75v5.73Z"/><path class="cls-3" d="M207.54,38.49l2.18-5.73h.8l2.31,5.73H212l-.66-1.74h-2.38l-.61,1.74Zm1.62-2.35h1.92l-.58-1.59c-.18-.49-.32-.88-.4-1.19a7.21,7.21,0,0,1-.31,1.1Z"/><path class="cls-3" d="M216.32,38.49l2.18-5.73h.8l2.31,5.73h-.85l-.66-1.74h-2.37l-.62,1.74Zm1.62-2.35h1.93l-.59-1.59c-.18-.49-.31-.88-.4-1.19a6.22,6.22,0,0,1-.31,1.1Z"/><path class="cls-3" d="M222.19,38.49V32.76h1.94a4.27,4.27,0,0,1,1.1.11,1.92,1.92,0,0,1,.86.5,2.38,2.38,0,0,1,.56.91,3.72,3.72,0,0,1,.2,1.31,3.6,3.6,0,0,1-.34,1.65,2.1,2.1,0,0,1-.88,1,3.15,3.15,0,0,1-1.41.28Zm.74-.68h1.2a2.49,2.49,0,0,0,1.11-.19,1.4,1.4,0,0,0,.58-.64,3.45,3.45,0,0,0,.26-1.39,2.77,2.77,0,0,0-.28-1.37,1.38,1.38,0,0,0-.73-.67,3.1,3.1,0,0,0-.95-.11h-1.19Z"/><path class="cls-3" d="M229.52,38.49l-2.2-5.73h.81l1.47,4.16c.12.32.22.64.3.94.09-.32.19-.63.3-.94l1.53-4.16h.76l-2.21,5.73Z"/><path class="cls-3" d="M233.17,38.49V32.76h4.08v.68h-3.33v1.75H237v.67h-3.12v2h3.46v.68Z"/><path class="cls-3" d="M238.39,38.49V32.76h.77l3,4.51V32.76h.71v5.73h-.76l-3-4.51v4.51Z"/><path class="cls-3" d="M245.55,38.49V33.44H243.7v-.68h4.47v.68H246.3v5.05Z"/><path class="cls-3" d="M249.07,38.49V32.76h.75v5.73Z"/><path class="cls-3" d="M250.87,36.64l.7-.06a1.47,1.47,0,0,0,.26.74,1.33,1.33,0,0,0,.57.42,2,2,0,0,0,.83.16,1.74,1.74,0,0,0,1-.27.84.84,0,0,0,.37-.7.72.72,0,0,0-.14-.44.86.86,0,0,0-.4-.31,7.39,7.39,0,0,0-1.17-.35,4.57,4.57,0,0,1-1.13-.39,1.53,1.53,0,0,1-.53-.51,1.32,1.32,0,0,1-.19-.69,1.41,1.41,0,0,1,.54-1.14,2.27,2.27,0,0,1,1.46-.44,2.67,2.67,0,0,1,1.1.21,1.6,1.6,0,0,1,.73.59,1.63,1.63,0,0,1,.28.91l-.72.06a1.1,1.1,0,0,0-.4-.83,1.53,1.53,0,0,0-1-.27,1.76,1.76,0,0,0-1,.23.74.74,0,0,0-.33.62.61.61,0,0,0,.25.53,3.06,3.06,0,0,0,1.09.39,7.73,7.73,0,0,1,1.18.34,1.8,1.8,0,0,1,.78.57,1.44,1.44,0,0,1,.26.86,1.52,1.52,0,0,1-.28.89,1.77,1.77,0,0,1-.75.62,2.85,2.85,0,0,1-1.15.21,2.51,2.51,0,0,1-1.67-.53A1.82,1.82,0,0,1,250.87,36.64Z"/><path class="cls-3" d="M257.83,38.49V33.44H256v-.68h4.47v.68h-1.87v5.05Z"/><path class="cls-3" d="M263,36.64l.71-.06a1.24,1.24,0,0,0,.82,1.16,2.06,2.06,0,0,0,.84.16,1.76,1.76,0,0,0,1-.27.83.83,0,0,0,.36-.7.72.72,0,0,0-.13-.44.92.92,0,0,0-.4-.31,7.39,7.39,0,0,0-1.17-.35,4.85,4.85,0,0,1-1.14-.39,1.5,1.5,0,0,1-.52-.51,1.23,1.23,0,0,1-.19-.69,1.41,1.41,0,0,1,.54-1.14,2.24,2.24,0,0,1,1.45-.44,2.75,2.75,0,0,1,1.11.21,1.65,1.65,0,0,1,.73.59,1.72,1.72,0,0,1,.28.91l-.72.06a1.14,1.14,0,0,0-.4-.83,1.55,1.55,0,0,0-1-.27,1.74,1.74,0,0,0-1,.23.74.74,0,0,0-.33.62.63.63,0,0,0,.24.53,3.14,3.14,0,0,0,1.1.39,7.18,7.18,0,0,1,1.17.34,1.69,1.69,0,0,1,.78.57,1.38,1.38,0,0,1,.27.86,1.59,1.59,0,0,1-.28.89,1.83,1.83,0,0,1-.75.62,2.85,2.85,0,0,1-1.15.21,2.5,2.5,0,0,1-1.67-.53A1.82,1.82,0,0,1,263,36.64Z"/><path class="cls-3" d="M272.52,36.48l.75.19a2.5,2.5,0,0,1-.87,1.44,2.39,2.39,0,0,1-1.51.48,2.68,2.68,0,0,1-1.34-.32,2.34,2.34,0,0,1-.91-1,3.64,3.64,0,0,1-.36-1.67,3.29,3.29,0,0,1,.36-1.6,2.41,2.41,0,0,1,1-1,2.75,2.75,0,0,1,1.35-.33,2.35,2.35,0,0,1,1.41.42,2.26,2.26,0,0,1,.82,1.24l-.73.18a1.5,1.5,0,0,0-1.51-1.19,1.92,1.92,0,0,0-1,.24,1.63,1.63,0,0,0-.66.75,2.86,2.86,0,0,0-.25,1.28,2.69,2.69,0,0,0,.5,1.77,1.76,1.76,0,0,0,2.38.23A1.86,1.86,0,0,0,272.52,36.48Z"/><path class="cls-3" d="M274.2,38.49V32.76H275v2.35h2.94V32.76h.74v5.73h-.74v-2.7H275v2.7Z"/><path class="cls-3" d="M279.69,35.7a3.08,3.08,0,0,1,.77-2.25,2.59,2.59,0,0,1,1.93-.79,2.76,2.76,0,0,1,1.37.35,2.58,2.58,0,0,1,1,1,3.34,3.34,0,0,1,.36,1.6,3,3,0,0,1-.69,2.07,2.55,2.55,0,0,1-2,.89,2.52,2.52,0,0,1-2-.91A3,3,0,0,1,279.69,35.7Zm.77,0a2.28,2.28,0,0,0,.56,1.64,1.89,1.89,0,0,0,2.74,0,2.46,2.46,0,0,0,.56-1.74,3,3,0,0,0-.29-1.32,1.56,1.56,0,0,0-.66-.71,1.84,1.84,0,0,0-1-.27,1.79,1.79,0,0,0-1.39.59A2.55,2.55,0,0,0,280.46,35.71Z"/><path class="cls-3" d="M285.83,35.7a3.08,3.08,0,0,1,.77-2.25,2.59,2.59,0,0,1,1.93-.79,2.76,2.76,0,0,1,1.37.35,2.58,2.58,0,0,1,1,1,3.34,3.34,0,0,1,.36,1.6,3,3,0,0,1-.7,2.07,2.68,2.68,0,0,1-4,0A3,3,0,0,1,285.83,35.7Zm.77,0a2.28,2.28,0,0,0,.56,1.64,1.89,1.89,0,0,0,2.74,0,2.46,2.46,0,0,0,.56-1.74,3,3,0,0,0-.29-1.32,1.62,1.62,0,0,0-.66-.71,1.84,1.84,0,0,0-1-.27,1.77,1.77,0,0,0-1.39.59A2.55,2.55,0,0,0,286.6,35.71Z"/><path class="cls-3" d="M292.13,38.49V32.76h.75v5.05h2.78v.68Z"/><path class="cls-4" d="M22.43,94V86.82h2.44a8.51,8.51,0,0,1,1.8.11,1.93,1.93,0,0,1,1.08.7A2.14,2.14,0,0,1,28.19,89a2.33,2.33,0,0,1-.25,1.11,2.1,2.1,0,0,1-.64.71,2.15,2.15,0,0,1-.79.33,8.77,8.77,0,0,1-1.57.11H24V94ZM24,88v2h.83A4.31,4.31,0,0,0,26,90a1,1,0,0,0,.47-.35.91.91,0,0,0,.17-.56.89.89,0,0,0-.24-.64,1,1,0,0,0-.61-.32,7.93,7.93,0,0,0-1.09,0Z"/><path class="cls-4" d="M29.44,94V86.82H31v2.82h3V86.82h1.52V94H33.93V90.85H31V94Z"/><path class="cls-4" d="M39,94V91l-2.75-4.14H38l1.76,2.83,1.74-2.83h1.75L40.5,91v3Z"/><path class="cls-4" d="M43.64,91.65l1.47-.14a1.49,1.49,0,0,0,1.64,1.37,1.75,1.75,0,0,0,1.11-.29.87.87,0,0,0,.37-.69.59.59,0,0,0-.16-.43,1.13,1.13,0,0,0-.54-.31c-.18-.06-.59-.17-1.22-.32a4.21,4.21,0,0,1-1.71-.71,1.82,1.82,0,0,1-.37-2.46,2,2,0,0,1,.94-.72,3.85,3.85,0,0,1,1.48-.25,3.26,3.26,0,0,1,2.13.59,2,2,0,0,1,.75,1.58L48,88.93a1.18,1.18,0,0,0-.41-.79,1.55,1.55,0,0,0-1-.25,1.82,1.82,0,0,0-1,.26.52.52,0,0,0-.24.45.53.53,0,0,0,.22.43,4.39,4.39,0,0,0,1.4.48,8.52,8.52,0,0,1,1.64.51,2.11,2.11,0,0,1,.83.73,2.06,2.06,0,0,1,.3,1.14A2,2,0,0,1,49.39,93a2.1,2.1,0,0,1-1,.8,4.28,4.28,0,0,1-1.63.26,3.36,3.36,0,0,1-2.19-.62A2.65,2.65,0,0,1,43.64,91.65Z"/><path class="cls-4" d="M51,94V86.82h1.51V94Z"/><path class="cls-4" d="M58.75,91.35l1.47.44a3.12,3.12,0,0,1-1.12,1.74,3.68,3.68,0,0,1-4.46-.4,3.65,3.65,0,0,1-1-2.67,3.81,3.81,0,0,1,1-2.77,3.42,3.42,0,0,1,2.55-1,3.24,3.24,0,0,1,2.24.77,2.84,2.84,0,0,1,.77,1.32l-1.5.34a1.55,1.55,0,0,0-.56-.88,1.66,1.66,0,0,0-1-.32,1.74,1.74,0,0,0-1.35.57,2.69,2.69,0,0,0-.52,1.85,2.93,2.93,0,0,0,.51,1.94,1.71,1.71,0,0,0,1.33.57,1.57,1.57,0,0,0,1-.36A2.16,2.16,0,0,0,58.75,91.35Z"/><path class="cls-4" d="M68.3,94H66.65L66,92.35H63L62.37,94H60.76l2.93-7.16h1.6Zm-2.79-2.83-1-2.66-1,2.66Z"/><path class="cls-4" d="M69.15,94v-7.1h1.51v5.89h3.78V94Z"/><path class="cls-4" d="M84.64,94H83l-.65-1.63h-3L78.7,94H77.09L80,86.82h1.61Zm-2.8-2.83-1-2.66-1,2.66Z"/><path class="cls-4" d="M85.44,86.82h2.77a5.25,5.25,0,0,1,1.43.14,2.44,2.44,0,0,1,1.13.66,3,3,0,0,1,.72,1.15,5.21,5.21,0,0,1,.25,1.7A4.59,4.59,0,0,1,91.51,92a3.12,3.12,0,0,1-.81,1.26,2.66,2.66,0,0,1-1.07.58,4.8,4.8,0,0,1-1.34.15H85.44ZM87,88v4.74h1.14A3.93,3.93,0,0,0,89,92.7a1.21,1.21,0,0,0,1-1,4.16,4.16,0,0,0,.16-1.31A3.84,3.84,0,0,0,90,89.13a1.49,1.49,0,0,0-.43-.69,1.44,1.44,0,0,0-.7-.34A6.76,6.76,0,0,0,87.63,88Z"/><path class="cls-4" d="M93,86.82h2.77a5.25,5.25,0,0,1,1.43.14,2.44,2.44,0,0,1,1.13.66,3,3,0,0,1,.72,1.15,5,5,0,0,1,.25,1.7A4.59,4.59,0,0,1,99.09,92a3.12,3.12,0,0,1-.81,1.26,2.68,2.68,0,0,1-1.06.58,4.93,4.93,0,0,1-1.35.15H93ZM94.54,88v4.74h1.13a4.09,4.09,0,0,0,.92-.07,1.44,1.44,0,0,0,.61-.29,1.57,1.57,0,0,0,.4-.7,4.52,4.52,0,0,0,.15-1.31,4.18,4.18,0,0,0-.15-1.27,1.67,1.67,0,0,0-.43-.69,1.47,1.47,0,0,0-.71-.34A6.63,6.63,0,0,0,95.22,88Z"/><path class="cls-4" d="M100.61,94V86.82h3.2a5.73,5.73,0,0,1,1.75.19,1.73,1.73,0,0,1,.87.69,2,2,0,0,1,.33,1.13,1.88,1.88,0,0,1-.5,1.33,2.43,2.43,0,0,1-1.49.66,3.55,3.55,0,0,1,.82.6,8.19,8.19,0,0,1,.86,1.16l.92,1.4h-1.82l-1.09-1.56a9.65,9.65,0,0,0-.8-1,1.14,1.14,0,0,0-.46-.3,2.72,2.72,0,0,0-.76-.08h-.31v3Zm1.52-4.13h1.12a6.05,6.05,0,0,0,1.37-.09.82.82,0,0,0,.42-.3,1,1,0,0,0,.15-.54.79.79,0,0,0-.2-.58.92.92,0,0,0-.57-.29c-.12,0-.49,0-1.11,0h-1.18Z"/><path class="cls-4" d="M108.19,94V86.82h5.57V88h-4.05v1.59h3.77v1.2h-3.77v2h4.2V94Z"/><path class="cls-4" d="M114.81,91.65l1.47-.14a1.49,1.49,0,0,0,1.64,1.37,1.75,1.75,0,0,0,1.11-.29.87.87,0,0,0,.37-.69.59.59,0,0,0-.16-.43,1.13,1.13,0,0,0-.54-.31c-.18-.06-.58-.17-1.22-.32a4.21,4.21,0,0,1-1.71-.71,1.82,1.82,0,0,1-.37-2.46,2,2,0,0,1,.94-.72,3.85,3.85,0,0,1,1.48-.25,3.22,3.22,0,0,1,2.13.59,2,2,0,0,1,.75,1.58l-1.51.06a1.23,1.23,0,0,0-.42-.79,1.55,1.55,0,0,0-1-.25,1.84,1.84,0,0,0-1,.26.52.52,0,0,0-.24.45.51.51,0,0,0,.23.43,4.2,4.2,0,0,0,1.39.48,8.29,8.29,0,0,1,1.64.51,2.11,2.11,0,0,1,.83.73,2.06,2.06,0,0,1,.3,1.14,2,2,0,0,1-.36,1.15,2.12,2.12,0,0,1-1,.8,4.37,4.37,0,0,1-1.64.26,3.36,3.36,0,0,1-2.19-.62A2.69,2.69,0,0,1,114.81,91.65Z"/><path class="cls-4" d="M121.81,91.65l1.48-.14A1.81,1.81,0,0,0,126,92.59a.87.87,0,0,0,.37-.69.63.63,0,0,0-.15-.43,1.17,1.17,0,0,0-.55-.31c-.18-.06-.58-.17-1.21-.32a4.09,4.09,0,0,1-1.71-.71,1.8,1.8,0,0,1-.7-1.44,1.77,1.77,0,0,1,.33-1,2,2,0,0,1,.94-.72,3.85,3.85,0,0,1,1.48-.25,3.26,3.26,0,0,1,2.13.59,2.08,2.08,0,0,1,.75,1.58l-1.52.06a1.19,1.19,0,0,0-.42-.79,1.51,1.51,0,0,0-1-.25,1.84,1.84,0,0,0-1,.26.52.52,0,0,0-.24.45.54.54,0,0,0,.23.43,4.3,4.3,0,0,0,1.39.48,8.29,8.29,0,0,1,1.64.51,2,2,0,0,1,1.13,1.87,2,2,0,0,1-.36,1.15,2.08,2.08,0,0,1-1,.8,4.34,4.34,0,0,1-1.64.26,3.36,3.36,0,0,1-2.19-.62A2.69,2.69,0,0,1,121.81,91.65Z"/><path class="cls-2" d="M214.15,109.16l.82.24a3.3,3.3,0,0,1-.95,1.8,2.44,2.44,0,0,1-1.65.59,2.59,2.59,0,0,1-1.47-.4,2.83,2.83,0,0,1-1-1.28,5.06,5.06,0,0,1-.39-2.07,4.6,4.6,0,0,1,.39-2A2.88,2.88,0,0,1,211,104.8a2.69,2.69,0,0,1,1.48-.42,2.35,2.35,0,0,1,1.53.53,2.8,2.8,0,0,1,.9,1.55l-.8.22c-.28-1-.82-1.49-1.65-1.49a1.89,1.89,0,0,0-1.07.3,2,2,0,0,0-.72.94,4.13,4.13,0,0,0-.27,1.61,3.62,3.62,0,0,0,.55,2.2,1.7,1.7,0,0,0,1.44.74,1.63,1.63,0,0,0,1.15-.45A2.39,2.39,0,0,0,214.15,109.16Z"/><path class="cls-2" d="M218.79,111a2.67,2.67,0,0,1-.79.56,2,2,0,0,1-.85.19,1.5,1.5,0,0,1-1.11-.4,1.4,1.4,0,0,1-.42-1.08,1.57,1.57,0,0,1,.2-.79,1.38,1.38,0,0,1,.53-.54,2.91,2.91,0,0,1,1-.29,6.19,6.19,0,0,0,1.35-.31v-.22a1.05,1.05,0,0,0-.2-.75,1.08,1.08,0,0,0-.86-.31,1.31,1.31,0,0,0-.79.2,1.36,1.36,0,0,0-.39.79l-.74-.12a2,2,0,0,1,.64-1.22,2.25,2.25,0,0,1,1.39-.38,2,2,0,0,1,1.1.26,1.05,1.05,0,0,1,.51.62,4.28,4.28,0,0,1,.1,1.08v1.17a14.76,14.76,0,0,0,0,1.55,2.4,2.4,0,0,0,.19.63h-.79A2.31,2.31,0,0,1,218.79,111Zm-.06-2a5.39,5.39,0,0,1-1.24.34,2.5,2.5,0,0,0-.66.17.76.76,0,0,0-.3.29.82.82,0,0,0-.1.42.76.76,0,0,0,.24.59.92.92,0,0,0,.66.22,1.35,1.35,0,0,0,.74-.2,1.19,1.19,0,0,0,.49-.53,2.25,2.25,0,0,0,.17-1Z"/><path class="cls-2" d="M220.68,111.67v-5.19h.67v.72a1.74,1.74,0,0,1,.58-.62,1.5,1.5,0,0,1,.78-.22,1.36,1.36,0,0,1,.79.23,1.24,1.24,0,0,1,.46.68,2.06,2.06,0,0,1,.62-.68,1.39,1.39,0,0,1,.77-.23,1.28,1.28,0,0,1,1,.42,2,2,0,0,1,.37,1.33v3.56H226V108.4a2.37,2.37,0,0,0-.09-.79.67.67,0,0,0-.27-.36.73.73,0,0,0-.43-.13,1,1,0,0,0-.8.37,1.77,1.77,0,0,0-.31,1.16v3h-.75v-3.38a1.5,1.5,0,0,0-.21-.91.7.7,0,0,0-.57-.26,1,1,0,0,0-.82.4,2.52,2.52,0,0,0-.3,1.45v2.7Z"/><path class="cls-2" d="M228.54,111.67h-.71v-7.16h.76v2.55a1.68,1.68,0,0,1,.55-.52,1.3,1.3,0,0,1,.68-.18,1.62,1.62,0,0,1,1,.3,2.07,2.07,0,0,1,.68.9,3.83,3.83,0,0,1,.26,1.47,3.16,3.16,0,0,1-.58,2,1.73,1.73,0,0,1-1.36.71,1.29,1.29,0,0,1-.7-.19,1.72,1.72,0,0,1-.53-.57Zm0-2.64a3.67,3.67,0,0,0,.15,1.21,1.29,1.29,0,0,0,.44.61,1,1,0,0,0,.62.21,1,1,0,0,0,.83-.5,2.48,2.48,0,0,0,.37-1.5,2.59,2.59,0,0,0-.35-1.5,1.06,1.06,0,0,0-.86-.47,1,1,0,0,0-.84.5A2.43,2.43,0,0,0,228.53,109Z"/><path class="cls-2" d="M232.35,109.07a3,3,0,0,1,.59-2,1.88,1.88,0,0,1,1.5-.69,1.9,1.9,0,0,1,1.49.69,2.88,2.88,0,0,1,.6,2,3.15,3.15,0,0,1-.59,2.08,1.87,1.87,0,0,1-1.5.68,1.93,1.93,0,0,1-1.5-.68A3,3,0,0,1,232.35,109.07Zm.77,0a2.47,2.47,0,0,0,.38,1.5,1.18,1.18,0,0,0,1,.49,1.1,1.1,0,0,0,.91-.5,3,3,0,0,0,0-3,1.16,1.16,0,0,0-1-.49,1.12,1.12,0,0,0-.92.49A2.46,2.46,0,0,0,233.12,109.07Z"/><path class="cls-2" d="M240.31,111.67V111a1.54,1.54,0,0,1-.52.58,1.34,1.34,0,0,1-.7.19,1.71,1.71,0,0,1-1.37-.71,3.11,3.11,0,0,1-.58-2,3.91,3.91,0,0,1,.26-1.5,2,2,0,0,1,.68-.91,1.65,1.65,0,0,1,.95-.3,1.44,1.44,0,0,1,.7.19,1.58,1.58,0,0,1,.53.53v-2.57H241v7.16Zm-2.39-2.59a2.42,2.42,0,0,0,.37,1.49,1,1,0,0,0,.85.49,1.05,1.05,0,0,0,.84-.47,2.36,2.36,0,0,0,.35-1.41,2.84,2.84,0,0,0-.35-1.59,1.06,1.06,0,0,0-.9-.5,1,1,0,0,0-.82.48A2.61,2.61,0,0,0,237.92,109.08Z"/><path class="cls-2" d="M242.21,105.52v-1H243v1Zm0,6.15v-5.19H243v5.19Z"/><path class="cls-2" d="M247,111a2.67,2.67,0,0,1-.79.56,2,2,0,0,1-.85.19,1.5,1.5,0,0,1-1.11-.4,1.4,1.4,0,0,1-.42-1.08,1.57,1.57,0,0,1,.2-.79,1.38,1.38,0,0,1,.53-.54,2.84,2.84,0,0,1,1-.29,6.16,6.16,0,0,0,1.36-.31v-.22a1.05,1.05,0,0,0-.2-.75,1.09,1.09,0,0,0-.86-.31,1,1,0,0,0-1.18,1L244,108a1.94,1.94,0,0,1,.64-1.22,2.25,2.25,0,0,1,1.39-.38,2,2,0,0,1,1.1.26,1.05,1.05,0,0,1,.51.62,4.28,4.28,0,0,1,.1,1.08v1.17a14.76,14.76,0,0,0,.05,1.55,2.4,2.4,0,0,0,.19.63h-.79A2,2,0,0,1,247,111Zm-.06-2a5.39,5.39,0,0,1-1.24.34,2.5,2.5,0,0,0-.66.17.76.76,0,0,0-.3.29.82.82,0,0,0-.1.42.76.76,0,0,0,.24.59.92.92,0,0,0,.66.22,1.35,1.35,0,0,0,.74-.2,1.25,1.25,0,0,0,.49-.53,2.25,2.25,0,0,0,.17-1Z"/><path class="cls-2" d="M250.26,111.67l2.38-7.16h.87l2.53,7.16h-.94l-.71-2.17h-2.6l-.67,2.17Zm1.77-2.94h2.1l-.64-2c-.2-.6-.34-1.1-.43-1.48a11.42,11.42,0,0,1-.34,1.37Z"/><path class="cls-2" d="M259.47,111.67V111a1.66,1.66,0,0,1-.53.58,1.34,1.34,0,0,1-.7.19,1.69,1.69,0,0,1-1.36-.71,3.06,3.06,0,0,1-.58-2,3.92,3.92,0,0,1,.25-1.5,2.06,2.06,0,0,1,.69-.91,1.6,1.6,0,0,1,.95-.3,1.38,1.38,0,0,1,.69.19,1.58,1.58,0,0,1,.53.53v-2.57h.76v7.16Zm-2.4-2.59a2.49,2.49,0,0,0,.37,1.49,1,1,0,0,0,1.69,0,2.29,2.29,0,0,0,.35-1.41,2.75,2.75,0,0,0-.35-1.59,1,1,0,0,0-.89-.5,1,1,0,0,0-.82.48A2.61,2.61,0,0,0,257.07,109.08Z"/><path class="cls-2" d="M262.61,111.67l-1.7-5.19h.8l1,3.11c.11.35.21.7.29,1,.07-.27.16-.6.28-1l1-3.16H265l-1.7,5.19Z"/><path class="cls-2" d="M268.72,110l.78.11a2.22,2.22,0,0,1-.7,1.25,2.09,2.09,0,0,1-2.8-.26,3,3,0,0,1-.59-2,3.13,3.13,0,0,1,.59-2.05,1.89,1.89,0,0,1,1.5-.71,1.8,1.8,0,0,1,1.45.7,3.08,3.08,0,0,1,.58,2v.24h-3.33a2.2,2.2,0,0,0,.42,1.32,1.2,1.2,0,0,0,.93.44C268.1,111.06,268.5,110.71,268.72,110Zm-2.48-1.42h2.49a2,2,0,0,0-.31-1,1.13,1.13,0,0,0-1.79-.08A1.69,1.69,0,0,0,266.24,108.58Z"/><path class="cls-2" d="M270.46,111.67v-5.19h.68v.73a1.74,1.74,0,0,1,.6-.63,1.5,1.5,0,0,1,.82-.22,1.59,1.59,0,0,1,.66.14,1.27,1.27,0,0,1,.77.91,4.64,4.64,0,0,1,.09,1.07v3.19h-.75v-3.16a2.51,2.51,0,0,0-.1-.84.94.94,0,0,0-.32-.41,1,1,0,0,0-.51-.14,1.05,1.05,0,0,0-.86.39,2,2,0,0,0-.33,1.32v2.84Z"/><path class="cls-2" d="M276.93,110.88l.1.78a2.38,2.38,0,0,1-.56.07,1.32,1.32,0,0,1-.64-.14.78.78,0,0,1-.33-.41,3.77,3.77,0,0,1-.09-1v-3h-.55v-.68h.55V105.2l.76-.53v1.81h.76v.68h-.76v3a1.49,1.49,0,0,0,.06.54.38.38,0,0,0,.37.17Z"/><path class="cls-2" d="M277.64,105.52v-1h.76v1Zm0,6.15v-5.19h.76v5.19Z"/><path class="cls-2" d="M279.26,110.11,280,110a1.21,1.21,0,0,0,.36.81,1.13,1.13,0,0,0,.79.27,1.17,1.17,0,0,0,.76-.23.75.75,0,0,0,.27-.59.57.57,0,0,0-.24-.48,3,3,0,0,0-.76-.29A5.4,5.4,0,0,1,280,109a1.27,1.27,0,0,1-.47-.48,1.56,1.56,0,0,1-.16-.69,1.41,1.41,0,0,1,.45-1.08,1.71,1.71,0,0,1,1.23-.42,2.19,2.19,0,0,1,.88.17,1.4,1.4,0,0,1,.57.46,1.88,1.88,0,0,1,.28.83l-.74.12a.87.87,0,0,0-1-.85,1.21,1.21,0,0,0-.73.18.6.6,0,0,0-.24.48.56.56,0,0,0,.23.46,5.36,5.36,0,0,0,.82.31,6.85,6.85,0,0,1,1.22.45,1.19,1.19,0,0,1,.43.46,1.47,1.47,0,0,1,.15.69,1.55,1.55,0,0,1-.5,1.2,1.89,1.89,0,0,1-1.35.46A1.72,1.72,0,0,1,279.26,110.11Z"/><path class="cls-2" d="M285.54,110.88l.11.78a2.46,2.46,0,0,1-.57.07,1.28,1.28,0,0,1-.63-.14.74.74,0,0,1-.33-.41,3.77,3.77,0,0,1-.09-1v-3h-.56v-.68H284V105.2l.75-.53v1.81h.76v.68h-.76v3a1.24,1.24,0,0,0,.07.54.36.36,0,0,0,.36.17Z"/><path class="cls-2" d="M288.48,109.36l.77-.08a2,2,0,0,0,.28.92,1.48,1.48,0,0,0,.62.53,2,2,0,0,0,.91.2,1.76,1.76,0,0,0,1.14-.33,1.13,1.13,0,0,0,.4-.88,1,1,0,0,0-.15-.56,1,1,0,0,0-.44-.38,7.21,7.21,0,0,0-1.27-.43,4.57,4.57,0,0,1-1.24-.5,1.67,1.67,0,0,1-.58-.63,1.77,1.77,0,0,1-.2-.87,1.84,1.84,0,0,1,.59-1.42,2.26,2.26,0,0,1,1.59-.55,2.71,2.71,0,0,1,1.2.26,1.91,1.91,0,0,1,.8.74,2.3,2.3,0,0,1,.3,1.14l-.78.07a1.52,1.52,0,0,0-.44-1,1.55,1.55,0,0,0-1.06-.33,1.65,1.65,0,0,0-1.06.29,1,1,0,0,0-.36.77.85.85,0,0,0,.27.67,3.17,3.17,0,0,0,1.2.48,7.85,7.85,0,0,1,1.28.42,2,2,0,0,1,.85.72,1.94,1.94,0,0,1,.29,1.07,2.08,2.08,0,0,1-.31,1.12,2,2,0,0,1-.82.77,2.78,2.78,0,0,1-1.25.26,2.5,2.5,0,0,1-1.82-.66A2.39,2.39,0,0,1,288.48,109.36Z"/><path class="cls-2" d="M297.31,109.77l.75.11a2.28,2.28,0,0,1-.65,1.41,1.7,1.7,0,0,1-1.23.49,1.81,1.81,0,0,1-1.45-.68,3.19,3.19,0,0,1-.56-2,3.09,3.09,0,0,1,.57-2,1.84,1.84,0,0,1,1.47-.68,1.71,1.71,0,0,1,1.16.41A2,2,0,0,1,298,108l-.73.13a1.43,1.43,0,0,0-.38-.78.84.84,0,0,0-.64-.26,1.1,1.1,0,0,0-.92.47,2.38,2.38,0,0,0-.37,1.49,2.67,2.67,0,0,0,.35,1.54,1.1,1.1,0,0,0,.9.47,1,1,0,0,0,.74-.31A1.67,1.67,0,0,0,297.31,109.77Z"/><path class="cls-2" d="M298.7,111.67v-7.16h.75v2.57a1.89,1.89,0,0,1,.6-.54,1.6,1.6,0,0,1,.75-.18,1.47,1.47,0,0,1,1.12.44,2.26,2.26,0,0,1,.41,1.58v3.29h-.75v-3.29a1.48,1.48,0,0,0-.25-1,.88.88,0,0,0-.69-.29,1.1,1.1,0,0,0-.84.38,2,2,0,0,0-.35,1.33v2.84Z"/><path class="cls-2" d="M303.2,109.07a3,3,0,0,1,.59-2,1.91,1.91,0,0,1,1.5-.69,1.89,1.89,0,0,1,1.49.69,2.88,2.88,0,0,1,.6,2,3.09,3.09,0,0,1-.59,2.08,1.87,1.87,0,0,1-1.5.68,1.91,1.91,0,0,1-1.49-.68A3,3,0,0,1,303.2,109.07Zm.77,0a2.4,2.4,0,0,0,.39,1.5,1.16,1.16,0,0,0,.95.49,1.12,1.12,0,0,0,.92-.5,3.11,3.11,0,0,0,0-3,1.18,1.18,0,0,0-1-.49,1.13,1.13,0,0,0-.92.49A2.46,2.46,0,0,0,304,109.07Z"/><path class="cls-2" d="M308,109.07a3,3,0,0,1,.59-2,2,2,0,0,1,3,0,2.88,2.88,0,0,1,.6,2,3.09,3.09,0,0,1-.59,2.08,1.87,1.87,0,0,1-1.5.68,1.89,1.89,0,0,1-1.49-.68A3,3,0,0,1,308,109.07Zm.77,0a2.4,2.4,0,0,0,.39,1.5,1.14,1.14,0,0,0,1,.49,1.12,1.12,0,0,0,.92-.5,2.44,2.44,0,0,0,.38-1.49,2.37,2.37,0,0,0-.39-1.49,1.14,1.14,0,0,0-.95-.49,1.12,1.12,0,0,0-.92.49A2.46,2.46,0,0,0,308.76,109.07Z"/><path class="cls-2" d="M313,111.67v-7.16h.75v7.16Z"/><path class="cls-2" d="M212.59,121.77l.74.11a2.22,2.22,0,0,1-.64,1.41,1.7,1.7,0,0,1-1.24.49,1.81,1.81,0,0,1-1.44-.68,3.13,3.13,0,0,1-.57-2,3,3,0,0,1,.58-2,1.83,1.83,0,0,1,1.46-.68,1.74,1.74,0,0,1,1.17.41,2,2,0,0,1,.61,1.23l-.73.13a1.5,1.5,0,0,0-.38-.78.86.86,0,0,0-.64-.26,1.13,1.13,0,0,0-.93.47,2.46,2.46,0,0,0-.36,1.49,2.59,2.59,0,0,0,.35,1.54,1.08,1.08,0,0,0,.9.47,1,1,0,0,0,.74-.31A1.67,1.67,0,0,0,212.59,121.77Z"/><path class="cls-2" d="M213.41,123.78l1.79-7.39h.61L214,123.78Z"/><path class="cls-2" d="M216.08,121.07a3,3,0,0,1,.6-2,1.87,1.87,0,0,1,1.49-.69,1.91,1.91,0,0,1,1.5.69,2.88,2.88,0,0,1,.6,2,3.15,3.15,0,0,1-.59,2.08,1.9,1.9,0,0,1-1.51.68,1.92,1.92,0,0,1-1.49-.68A3,3,0,0,1,216.08,121.07Zm.78,0a2.47,2.47,0,0,0,.38,1.5,1.18,1.18,0,0,0,1,.49,1.1,1.1,0,0,0,.91-.5,2.37,2.37,0,0,0,.38-1.49,2.44,2.44,0,0,0-.38-1.49,1.18,1.18,0,0,0-1-.49,1.11,1.11,0,0,0-.91.49A2.39,2.39,0,0,0,216.86,121.07Z"/><path class="cls-2" d="M228,121.16l.82.24a3.24,3.24,0,0,1-.95,1.8,2.44,2.44,0,0,1-1.65.59,2.55,2.55,0,0,1-1.46-.4,2.78,2.78,0,0,1-1-1.28,5.06,5.06,0,0,1-.39-2.07,4.6,4.6,0,0,1,.39-2,2.88,2.88,0,0,1,1.05-1.24,2.71,2.71,0,0,1,1.48-.42,2.31,2.31,0,0,1,1.53.53,2.8,2.8,0,0,1,.9,1.55l-.8.22c-.27-1-.82-1.49-1.65-1.49a1.86,1.86,0,0,0-1.06.3,2,2,0,0,0-.73.94,4.14,4.14,0,0,0-.26,1.61,3.7,3.7,0,0,0,.54,2.2,1.7,1.7,0,0,0,1.44.74,1.66,1.66,0,0,0,1.16-.45A2.44,2.44,0,0,0,228,121.16Z"/><path class="cls-2" d="M229.2,123.67l2.38-7.16h.87l2.52,7.16H234l-.72-2.17h-2.59l-.67,2.17Zm1.77-2.94h2.1l-.65-2c-.19-.6-.34-1.1-.43-1.48a9.79,9.79,0,0,1-.34,1.37Z"/><path class="cls-2" d="M235.59,123.67v-7.16h1.23l1.46,5.07.29,1.06c.07-.27.18-.65.33-1.15l1.48-5h1.1v7.16h-.79v-6l-1.79,6h-.74l-1.78-6.09v6.09Z"/><path class="cls-2" d="M242.9,123.67v-1h.86v1a1.93,1.93,0,0,1-.18.91,1.2,1.2,0,0,1-.52.5l-.21-.37a.84.84,0,0,0,.35-.35,1.72,1.72,0,0,0,.13-.69Z"/><path class="cls-2" d="M247.57,123.67v-7.16h2.33a4,4,0,0,1,1.21.13,1.73,1.73,0,0,1,.85.69,2.31,2.31,0,0,1,.31,1.24,2.4,2.4,0,0,1-.51,1.58,2.29,2.29,0,0,1-1.79.61h-1.58v2.91Zm.82-3.76H250a1.61,1.61,0,0,0,1.1-.32,1.26,1.26,0,0,0,.35-1,1.39,1.39,0,0,0-.17-.73,1,1,0,0,0-.41-.42,2.52,2.52,0,0,0-.88-.11h-1.58Z"/><path class="cls-2" d="M252.35,123.67v-1h.86v1Z"/><path class="cls-2" d="M254.38,120.18a4.14,4.14,0,0,1,.85-2.81,2.64,2.64,0,0,1,2.1-1,2.68,2.68,0,0,1,1.49.44,3,3,0,0,1,1.06,1.28,4.53,4.53,0,0,1,.4,2,4.19,4.19,0,0,1-.76,2.59,2.71,2.71,0,0,1-4.39,0A4.1,4.1,0,0,1,254.38,120.18Zm.84,0a3.16,3.16,0,0,0,.61,2.06,1.9,1.9,0,0,0,3,0,3.38,3.38,0,0,0,.61-2.17,4.08,4.08,0,0,0-.32-1.65,2,2,0,0,0-.72-.89,1.78,1.78,0,0,0-1.06-.34,1.89,1.89,0,0,0-1.52.73A3.56,3.56,0,0,0,255.22,120.19Z"/><path class="cls-2" d="M263.68,123.67v-7.16H266a2.51,2.51,0,0,1,1.12.21,1.64,1.64,0,0,1,.67.64,1.9,1.9,0,0,1,.26,1,1.75,1.75,0,0,1-.86,1.53,1.58,1.58,0,0,1,.84.63,1.85,1.85,0,0,1,.31,1.1,2.24,2.24,0,0,1-.28,1.14,1.59,1.59,0,0,1-.74.71,3,3,0,0,1-1.28.23Zm.81-4.15h1.34a3,3,0,0,0,.74-.07.91.91,0,0,0,.49-.35,1.07,1.07,0,0,0,.18-.65,1.3,1.3,0,0,0-.16-.65.89.89,0,0,0-.42-.35,3.12,3.12,0,0,0-.93-.1h-1.24Zm0,3.3H266a2.3,2.3,0,0,0,.75-.09,1,1,0,0,0,.53-.41,1.39,1.39,0,0,0,.18-.73,1.36,1.36,0,0,0-.17-.69,1.09,1.09,0,0,0-.47-.41,2.42,2.42,0,0,0-.93-.13h-1.43Z"/><path class="cls-2" d="M269.05,121.07a3,3,0,0,1,.6-2,1.88,1.88,0,0,1,1.5-.69,1.9,1.9,0,0,1,1.49.69,2.88,2.88,0,0,1,.6,2,3.15,3.15,0,0,1-.59,2.08,1.88,1.88,0,0,1-1.5.68,1.93,1.93,0,0,1-1.5-.68A3,3,0,0,1,269.05,121.07Zm.78,0a2.47,2.47,0,0,0,.38,1.5,1.18,1.18,0,0,0,1,.49,1.1,1.1,0,0,0,.91-.5,3.11,3.11,0,0,0,0-3,1.16,1.16,0,0,0-.95-.49,1.12,1.12,0,0,0-.92.49A2.46,2.46,0,0,0,269.83,121.07Z"/><path class="cls-2" d="M273.64,123.67l1.63-2.7-1.5-2.49h.94l.68,1.21c.13.23.23.42.31.59l.35-.57.75-1.23h.9l-1.54,2.44,1.66,2.75h-.93l-.92-1.62-.24-.43-1.17,2Z"/><path class="cls-2" d="M283,123.67V122h-2.67v-.8l2.81-4.64h.62v4.64h.84v.8h-.84v1.72Zm0-2.52v-3.23l-1.92,3.23Z"/><path class="cls-2" d="M286.57,119.78a1.41,1.41,0,0,1-.68-.56,1.59,1.59,0,0,1-.23-.9,1.8,1.8,0,0,1,.5-1.33,1.82,1.82,0,0,1,2.54,0,1.86,1.86,0,0,1,.51,1.35,1.61,1.61,0,0,1-.23.87,1.42,1.42,0,0,1-.68.56,1.72,1.72,0,0,1,.86.68,2.11,2.11,0,0,1,.3,1.16,2.14,2.14,0,0,1-.58,1.56,2,2,0,0,1-2.89,0,2.42,2.42,0,0,1-.28-2.77A1.56,1.56,0,0,1,286.57,119.78Zm-.39,1.82a1.49,1.49,0,0,0,.37,1.06,1.17,1.17,0,0,0,.89.41,1.12,1.12,0,0,0,.88-.4,1.45,1.45,0,0,0,.37-1,1.5,1.5,0,0,0-.38-1.06,1.17,1.17,0,0,0-.89-.4,1.12,1.12,0,0,0-.88.4A1.47,1.47,0,0,0,286.18,121.6Zm.25-3.31a1.21,1.21,0,0,0,.29.84,1,1,0,0,0,1.42,0,1.1,1.1,0,0,0,.29-.8,1.15,1.15,0,0,0-.3-.82.92.92,0,0,0-.7-.32,1,1,0,0,0-.71.31A1.12,1.12,0,0,0,286.43,118.29Z"/><path class="cls-2" d="M291.36,119.78a1.41,1.41,0,0,1-.68-.56,1.59,1.59,0,0,1-.24-.9A1.81,1.81,0,0,1,291,117a1.82,1.82,0,0,1,2.54,0,1.86,1.86,0,0,1,.51,1.35,1.61,1.61,0,0,1-.23.87,1.47,1.47,0,0,1-.68.56,1.72,1.72,0,0,1,.86.68,2.11,2.11,0,0,1,.3,1.16,2.18,2.18,0,0,1-.58,1.56,1.9,1.9,0,0,1-1.44.61,1.93,1.93,0,0,1-1.46-.61,2.44,2.44,0,0,1-.27-2.77A1.56,1.56,0,0,1,291.36,119.78ZM291,121.6a1.49,1.49,0,0,0,.37,1.06,1.17,1.17,0,0,0,.89.41,1.14,1.14,0,0,0,.88-.4,1.45,1.45,0,0,0,.36-1,1.49,1.49,0,0,0-.37-1.06,1.17,1.17,0,0,0-.89-.4,1.12,1.12,0,0,0-.88.4A1.47,1.47,0,0,0,291,121.6Zm.25-3.31a1.21,1.21,0,0,0,.29.84.92.92,0,0,0,.72.31.94.94,0,0,0,.7-.3,1.1,1.1,0,0,0,.29-.8,1.15,1.15,0,0,0-.3-.82.94.94,0,0,0-.7-.32,1,1,0,0,0-.71.31A1.12,1.12,0,0,0,291.22,118.29Z"/><path class="cls-2" d="M295.42,123.67v-1h.86v1a1.93,1.93,0,0,1-.18.91,1.2,1.2,0,0,1-.52.5l-.21-.37a.77.77,0,0,0,.34-.35,1.57,1.57,0,0,0,.13-.69Z"/><path class="cls-2" d="M209.77,135.67v-7.16h2.32a4,4,0,0,1,1.21.13,1.71,1.71,0,0,1,.86.69,2.31,2.31,0,0,1,.31,1.24,2.4,2.4,0,0,1-.51,1.58,2.29,2.29,0,0,1-1.79.61h-1.58v2.91Zm.82-3.76h1.59a1.61,1.61,0,0,0,1.1-.32,1.26,1.26,0,0,0,.35-1,1.39,1.39,0,0,0-.17-.73,1,1,0,0,0-.41-.42,2.52,2.52,0,0,0-.88-.11h-1.58Z"/><path class="cls-2" d="M215.41,135.67v-7.16h.76v2.57a1.7,1.7,0,0,1,.6-.54,1.53,1.53,0,0,1,.74-.18,1.47,1.47,0,0,1,1.12.44,2.25,2.25,0,0,1,.42,1.58v3.29h-.76v-3.29a1.48,1.48,0,0,0-.25-1,.88.88,0,0,0-.69-.29,1.1,1.1,0,0,0-.84.38,2,2,0,0,0-.34,1.33v2.84Z"/><path class="cls-2" d="M220.2,135.67v-5.19h.68v.73a1.82,1.82,0,0,1,.6-.63,1.5,1.5,0,0,1,.82-.22,1.59,1.59,0,0,1,.66.14,1.21,1.21,0,0,1,.49.35,1.29,1.29,0,0,1,.28.56,4.52,4.52,0,0,1,.1,1.07v3.19h-.76v-3.16a2.51,2.51,0,0,0-.1-.84.94.94,0,0,0-.32-.41,1,1,0,0,0-.51-.14,1.05,1.05,0,0,0-.86.39,2,2,0,0,0-.33,1.32v2.84Z"/><path class="cls-2" d="M224.7,133.07a3,3,0,0,1,.59-2,2,2,0,0,1,3,0,2.88,2.88,0,0,1,.59,2,3.15,3.15,0,0,1-.58,2.08,1.9,1.9,0,0,1-1.51.68,1.92,1.92,0,0,1-1.49-.68A3,3,0,0,1,224.7,133.07Zm.78,0a2.4,2.4,0,0,0,.38,1.5,1.16,1.16,0,0,0,.95.49,1.12,1.12,0,0,0,.92-.5,3.11,3.11,0,0,0,0-3,1.18,1.18,0,0,0-1-.49,1.1,1.1,0,0,0-.91.49A2.39,2.39,0,0,0,225.48,133.07Z"/><path class="cls-2" d="M229.78,135.67v-5.19h.68v.72a1.65,1.65,0,0,1,.58-.62,1.47,1.47,0,0,1,.77-.22,1.4,1.4,0,0,1,.8.23,1.29,1.29,0,0,1,.46.68,2,2,0,0,1,.61-.68,1.42,1.42,0,0,1,.77-.23,1.3,1.3,0,0,1,1,.42,2,2,0,0,1,.37,1.33v3.56h-.76V132.4a2.44,2.44,0,0,0-.08-.79.68.68,0,0,0-.28-.36.71.71,0,0,0-.43-.13,1,1,0,0,0-.79.37,1.77,1.77,0,0,0-.31,1.16v3h-.76v-3.38a1.59,1.59,0,0,0-.2-.91.71.71,0,0,0-.58-.26,1,1,0,0,0-.81.4,2.52,2.52,0,0,0-.3,1.45v2.7Z"/><path class="cls-2" d="M239.45,135.67v-7.16h2.32a4,4,0,0,1,1.21.13,1.69,1.69,0,0,1,.85.69,2.31,2.31,0,0,1,.32,1.24,2.35,2.35,0,0,1-.52,1.58,2.26,2.26,0,0,1-1.79.61h-1.58v2.91Zm.81-3.76h1.6a1.61,1.61,0,0,0,1.1-.32,1.3,1.3,0,0,0,.35-1,1.49,1.49,0,0,0-.17-.73,1.06,1.06,0,0,0-.42-.42,2.48,2.48,0,0,0-.88-.11h-1.58Z"/><path class="cls-2" d="M248.14,134l.78.11a2.23,2.23,0,0,1-.71,1.25,1.92,1.92,0,0,1-1.26.42,2,2,0,0,1-1.54-.68,3,3,0,0,1-.58-2,3.08,3.08,0,0,1,.59-2.05,1.87,1.87,0,0,1,1.5-.71,1.78,1.78,0,0,1,1.44.7,3,3,0,0,1,.58,2v.24H245.6a2.2,2.2,0,0,0,.43,1.32,1.18,1.18,0,0,0,.92.44C247.52,135.06,247.92,134.71,248.14,134Zm-2.49-1.42h2.49a1.86,1.86,0,0,0-.3-1,1.14,1.14,0,0,0-1.8-.08A1.75,1.75,0,0,0,245.65,132.58Z"/><path class="cls-2" d="M249.88,135.67v-5.19h.68v.73a1.66,1.66,0,0,1,.6-.63,1.49,1.49,0,0,1,.81-.22,1.67,1.67,0,0,1,.67.14,1.37,1.37,0,0,1,.49.35,1.4,1.4,0,0,1,.28.56,4.64,4.64,0,0,1,.09,1.07v3.19h-.75v-3.16a2.46,2.46,0,0,0-.11-.84.81.81,0,0,0-.32-.41.92.92,0,0,0-.5-.14,1.08,1.08,0,0,0-.87.39,2.11,2.11,0,0,0-.32,1.32v2.84Z"/><path class="cls-2" d="M254.66,135.67v-7.16h.76v2.57a1.79,1.79,0,0,1,.6-.54,1.53,1.53,0,0,1,.74-.18,1.49,1.49,0,0,1,1.13.44,2.31,2.31,0,0,1,.41,1.58v3.29h-.76v-3.29a1.48,1.48,0,0,0-.25-1,.85.85,0,0,0-.69-.29,1.1,1.1,0,0,0-.84.38,2,2,0,0,0-.34,1.33v2.84Z"/><path class="cls-2" d="M259.67,135.67v-1h.86v1a1.93,1.93,0,0,1-.18.91,1.2,1.2,0,0,1-.52.5l-.21-.37a.79.79,0,0,0,.35-.35,1.72,1.72,0,0,0,.13-.69Z"/><path class="cls-2" d="M268.72,133.16l.82.24a3.3,3.3,0,0,1-1,1.8,2.44,2.44,0,0,1-1.65.59,2.61,2.61,0,0,1-1.47-.4,2.83,2.83,0,0,1-1-1.28,5.06,5.06,0,0,1-.39-2.07,4.6,4.6,0,0,1,.39-2,2.88,2.88,0,0,1,1-1.24,2.69,2.69,0,0,1,1.48-.42,2.35,2.35,0,0,1,1.53.53,2.8,2.8,0,0,1,.9,1.55l-.8.22c-.27-1-.82-1.49-1.65-1.49a1.89,1.89,0,0,0-1.07.3,2,2,0,0,0-.72.94,4.13,4.13,0,0,0-.27,1.61,3.62,3.62,0,0,0,.55,2.2,1.7,1.7,0,0,0,1.44.74,1.62,1.62,0,0,0,1.15-.45A2.39,2.39,0,0,0,268.72,133.16Z"/><path class="cls-2" d="M273.36,135a2.55,2.55,0,0,1-.79.56,2,2,0,0,1-.85.19,1.51,1.51,0,0,1-1.11-.4,1.4,1.4,0,0,1-.42-1.08,1.57,1.57,0,0,1,.2-.79,1.45,1.45,0,0,1,.53-.54,2.91,2.91,0,0,1,1-.29,6.19,6.19,0,0,0,1.35-.31v-.22a1.05,1.05,0,0,0-.2-.75,1.08,1.08,0,0,0-.86-.31,1.31,1.31,0,0,0-.79.2,1.36,1.36,0,0,0-.39.79l-.74-.12a2,2,0,0,1,.64-1.22,2.25,2.25,0,0,1,1.39-.38,2,2,0,0,1,1.1.26,1.05,1.05,0,0,1,.51.62,4.28,4.28,0,0,1,.1,1.08v1.17a14.76,14.76,0,0,0,.05,1.55,2.4,2.4,0,0,0,.19.63h-.79A2.31,2.31,0,0,1,273.36,135Zm-.06-2a5.39,5.39,0,0,1-1.24.34,2.62,2.62,0,0,0-.66.17.76.76,0,0,0-.3.29.82.82,0,0,0-.1.42.76.76,0,0,0,.24.59.93.93,0,0,0,.67.22,1.32,1.32,0,0,0,.73-.2,1.27,1.27,0,0,0,.5-.53,2.27,2.27,0,0,0,.16-1Z"/><path class="cls-2" d="M275.25,135.67v-5.19h.67v.72a1.74,1.74,0,0,1,.58-.62,1.53,1.53,0,0,1,.78-.22,1.36,1.36,0,0,1,.79.23,1.31,1.31,0,0,1,.47.68,1.94,1.94,0,0,1,.61-.68,1.39,1.39,0,0,1,.77-.23,1.26,1.26,0,0,1,1,.42,2,2,0,0,1,.37,1.33v3.56h-.75V132.4a2.37,2.37,0,0,0-.09-.79.62.62,0,0,0-.27-.36.73.73,0,0,0-.43-.13,1,1,0,0,0-.8.37,1.77,1.77,0,0,0-.31,1.16v3h-.75v-3.38a1.5,1.5,0,0,0-.21-.91.7.7,0,0,0-.57-.26,1,1,0,0,0-.82.4A2.52,2.52,0,0,0,276,133v2.7Z"/><path class="cls-2" d="M283.11,135.67h-.7v-7.16h.75v2.55a1.68,1.68,0,0,1,.55-.52,1.3,1.3,0,0,1,.68-.18,1.62,1.62,0,0,1,.95.3,2,2,0,0,1,.68.9,3.65,3.65,0,0,1,.26,1.47,3.16,3.16,0,0,1-.58,2,1.73,1.73,0,0,1-1.36.71,1.29,1.29,0,0,1-.7-.19,1.72,1.72,0,0,1-.53-.57Zm0-2.64a3.67,3.67,0,0,0,.15,1.21,1.29,1.29,0,0,0,.44.61,1,1,0,0,0,.62.21,1,1,0,0,0,.83-.5,2.48,2.48,0,0,0,.37-1.5,2.59,2.59,0,0,0-.35-1.5,1.06,1.06,0,0,0-.86-.47,1,1,0,0,0-.84.5A2.43,2.43,0,0,0,283.1,133Z"/><path class="cls-2" d="M286.92,133.07a3,3,0,0,1,.59-2,1.88,1.88,0,0,1,1.5-.69,1.9,1.9,0,0,1,1.49.69,2.88,2.88,0,0,1,.6,2,3.15,3.15,0,0,1-.59,2.08,1.87,1.87,0,0,1-1.5.68,1.93,1.93,0,0,1-1.5-.68A3.05,3.05,0,0,1,286.92,133.07Zm.77,0a2.4,2.4,0,0,0,.39,1.5,1.14,1.14,0,0,0,.95.49,1.1,1.1,0,0,0,.91-.5,3,3,0,0,0,0-3,1.14,1.14,0,0,0-.95-.49,1.12,1.12,0,0,0-.92.49A2.46,2.46,0,0,0,287.69,133.07Z"/><path class="cls-2" d="M294.88,135.67V135a1.54,1.54,0,0,1-.52.58,1.34,1.34,0,0,1-.7.19,1.71,1.71,0,0,1-1.37-.71,3.11,3.11,0,0,1-.57-2,3.92,3.92,0,0,1,.25-1.5,2,2,0,0,1,.68-.91,1.65,1.65,0,0,1,1-.3,1.44,1.44,0,0,1,.7.19,1.58,1.58,0,0,1,.53.53v-2.57h.76v7.16Zm-2.39-2.59a2.42,2.42,0,0,0,.37,1.49,1,1,0,0,0,.85.49,1.05,1.05,0,0,0,.84-.47,2.36,2.36,0,0,0,.35-1.41,2.84,2.84,0,0,0-.35-1.59,1.06,1.06,0,0,0-.9-.5,1,1,0,0,0-.82.48A2.61,2.61,0,0,0,292.49,133.08Z"/><path class="cls-2" d="M296.78,129.52v-1h.76v1Zm0,6.15v-5.19h.76v5.19Z"/><path class="cls-2" d="M301.6,135a2.67,2.67,0,0,1-.79.56,2,2,0,0,1-.85.19,1.51,1.51,0,0,1-1.11-.4,1.4,1.4,0,0,1-.42-1.08,1.57,1.57,0,0,1,.2-.79,1.38,1.38,0,0,1,.53-.54,2.91,2.91,0,0,1,1-.29,6.19,6.19,0,0,0,1.35-.31v-.22a1.05,1.05,0,0,0-.2-.75,1.08,1.08,0,0,0-.86-.31,1.31,1.31,0,0,0-.79.2,1.36,1.36,0,0,0-.39.79l-.74-.12a2,2,0,0,1,.64-1.22,2.25,2.25,0,0,1,1.39-.38,2,2,0,0,1,1.1.26,1.05,1.05,0,0,1,.51.62,4.28,4.28,0,0,1,.1,1.08v1.17a14.76,14.76,0,0,0,.05,1.55,2.4,2.4,0,0,0,.19.63h-.79A2.31,2.31,0,0,1,301.6,135Zm-.06-2a5.39,5.39,0,0,1-1.24.34,2.62,2.62,0,0,0-.66.17.76.76,0,0,0-.3.29.82.82,0,0,0-.1.42.76.76,0,0,0,.24.59.92.92,0,0,0,.66.22,1.35,1.35,0,0,0,.74-.2,1.27,1.27,0,0,0,.5-.53,2.43,2.43,0,0,0,.16-1Z"/><path class="cls-2" d="M254.94,196.7l-1.37-5.19h.78l.71,3,.26,1.11.24-1.07.71-3h.78l.66,3,.23,1,.25-1,.76-3h.74l-1.39,5.19h-.79l-.71-3.11-.17-.88-.9,4Z"/><path class="cls-2" d="M261.15,196.7l-1.37-5.19h.78l.71,3,.27,1.11.23-1.07.71-3h.78l.66,3,.23,1,.26-1,.76-3h.74l-1.4,5.19h-.79l-.71-3.11-.17-.88-.9,4Z"/><path class="cls-2" d="M267.36,196.7,266,191.51h.79l.71,3,.26,1.11.24-1.07.7-3h.78l.67,3,.22,1,.26-1,.76-3h.74l-1.39,5.19h-.79l-.71-3.11-.17-.88-.91,4Z"/><path class="cls-2" d="M272.52,196.7v-1h.86v1Z"/><path class="cls-2" d="M277.6,194.8l.74.11a2.32,2.32,0,0,1-.64,1.42,1.76,1.76,0,0,1-1.24.49,1.79,1.79,0,0,1-1.44-.69,3.9,3.9,0,0,1,0-4.06,1.84,1.84,0,0,1,1.47-.67,1.71,1.71,0,0,1,1.17.41,2,2,0,0,1,.61,1.23l-.74.12a1.43,1.43,0,0,0-.37-.78.9.9,0,0,0-.64-.26,1.16,1.16,0,0,0-.93.47,2.47,2.47,0,0,0-.36,1.5,2.58,2.58,0,0,0,.35,1.53,1.08,1.08,0,0,0,.9.47,1,1,0,0,0,.73-.31A1.61,1.61,0,0,0,277.6,194.8Z"/><path class="cls-2" d="M281.89,196.06a2.77,2.77,0,0,1-.79.57,2.1,2.1,0,0,1-.85.19,1.57,1.57,0,0,1-1.11-.4,1.43,1.43,0,0,1-.42-1.08,1.61,1.61,0,0,1,.2-.8,1.45,1.45,0,0,1,.53-.54,2.91,2.91,0,0,1,1-.29,6.19,6.19,0,0,0,1.35-.31v-.22a.9.9,0,0,0-1.06-1.06,1.24,1.24,0,0,0-.79.21,1.36,1.36,0,0,0-.39.78l-.74-.12a1.92,1.92,0,0,1,.65-1.21,2.14,2.14,0,0,1,1.38-.38,2,2,0,0,1,1.1.25,1.05,1.05,0,0,1,.51.62,4.28,4.28,0,0,1,.1,1.08v1.18a14.9,14.9,0,0,0,.05,1.55,2.77,2.77,0,0,0,.19.62h-.78A2.22,2.22,0,0,1,281.89,196.06Zm-.06-2a5,5,0,0,1-1.24.33,2.18,2.18,0,0,0-.66.18.68.68,0,0,0-.3.28.82.82,0,0,0-.1.42.75.75,0,0,0,.24.59.94.94,0,0,0,.67.23,1.4,1.4,0,0,0,.73-.2,1.3,1.3,0,0,0,.5-.54,2.27,2.27,0,0,0,.16-1Z"/><path class="cls-2" d="M283.48,195.15l.75-.14a1.29,1.29,0,0,0,.37.82,1.15,1.15,0,0,0,.78.26,1.08,1.08,0,0,0,.76-.23.74.74,0,0,0,.27-.59.56.56,0,0,0-.23-.48,3.34,3.34,0,0,0-.77-.29,5.87,5.87,0,0,1-1.18-.44,1.32,1.32,0,0,1-.46-.48,1.41,1.41,0,0,1-.16-.69,1.44,1.44,0,0,1,.44-1.08,1.74,1.74,0,0,1,1.24-.41,2.06,2.06,0,0,1,.88.17,1.26,1.26,0,0,1,.57.46,1.79,1.79,0,0,1,.28.82l-.74.12a.87.87,0,0,0-1-.85,1.21,1.21,0,0,0-.73.18.6.6,0,0,0-.24.48.52.52,0,0,0,.23.46,4.12,4.12,0,0,0,.82.31,6.85,6.85,0,0,1,1.22.45,1.17,1.17,0,0,1,.42.46,1.35,1.35,0,0,1,.16.69,1.58,1.58,0,0,1-.5,1.21,1.94,1.94,0,0,1-1.35.46A1.73,1.73,0,0,1,283.48,195.15Z"/><path class="cls-2" d="M288.32,196.7v-1h.86v1Z"/><path class="cls-2" d="M293.52,195l.78.11a2.22,2.22,0,0,1-.7,1.25,1.93,1.93,0,0,1-1.27.43,1.91,1.91,0,0,1-1.53-.69,3,3,0,0,1-.59-2,3.13,3.13,0,0,1,.59-2.05,1.88,1.88,0,0,1,1.5-.7,1.82,1.82,0,0,1,1.45.69,3,3,0,0,1,.58,2v.23H291a2.14,2.14,0,0,0,.43,1.32,1.18,1.18,0,0,0,.92.44C292.91,196.09,293.3,195.74,293.52,195ZM291,193.61h2.49a2,2,0,0,0-.3-1,1.14,1.14,0,0,0-.93-.48,1.12,1.12,0,0,0-.87.4A1.69,1.69,0,0,0,291,193.61Z"/><path class="cls-2" d="M298.15,196.7V196a1.47,1.47,0,0,1-.52.58,1.35,1.35,0,0,1-.7.2,1.72,1.72,0,0,1-1.37-.72,3.1,3.1,0,0,1-.57-2,3.92,3.92,0,0,1,.25-1.5,2.08,2.08,0,0,1,.68-.92,1.64,1.64,0,0,1,1-.29,1.42,1.42,0,0,1,.69.18,1.58,1.58,0,0,1,.53.53v-2.57h.76v7.16Zm-2.39-2.59a2.42,2.42,0,0,0,.37,1.49,1,1,0,0,0,.85.49,1,1,0,0,0,.84-.47,2.36,2.36,0,0,0,.35-1.41,2.84,2.84,0,0,0-.35-1.59,1.08,1.08,0,0,0-.9-.5,1,1,0,0,0-.82.48A2.69,2.69,0,0,0,295.76,194.11Z"/><path class="cls-2" d="M303,196.7v-.76a2,2,0,0,1-.61.66,1.55,1.55,0,0,1-.8.22,1.51,1.51,0,0,1-.9-.28,1.28,1.28,0,0,1-.5-.68,3.85,3.85,0,0,1-.13-1.13v-3.22h.75v2.88a4.08,4.08,0,0,0,.09,1.07.8.8,0,0,0,.31.43.87.87,0,0,0,.52.17,1.08,1.08,0,0,0,.89-.43,2.18,2.18,0,0,0,.3-1.34v-2.78h.76v5.19Z"/><path class="cls-2" d="M305.08,196.7v-1h.86v1Z"/><path class="cls-2" d="M307.25,196.7v-7.16H308v4.09l1.8-2.12h1l-1.71,1.93L311,196.7H310L308.54,194l-.54.6v2.06Z"/><path class="cls-2" d="M311.54,196.7v-7.16h.75v2.57a1.82,1.82,0,0,1,.61-.54,1.64,1.64,0,0,1,.74-.17,1.46,1.46,0,0,1,1.12.43,2.27,2.27,0,0,1,.42,1.58v3.29h-.76v-3.29a1.44,1.44,0,0,0-.25-1,.86.86,0,0,0-.69-.3,1.1,1.1,0,0,0-.84.38,2,2,0,0,0-.35,1.33v2.84Z"/><path class="cls-2" d="M145.89,190.55v-1h.76v1Zm0,6.15v-5.19h.76v5.19Z"/><path class="cls-2" d="M147.8,196.7v-5.19h.69v.74a1.62,1.62,0,0,1,.6-.64,1.55,1.55,0,0,1,.81-.21,1.67,1.67,0,0,1,.67.13,1.5,1.5,0,0,1,.49.35,1.6,1.6,0,0,1,.28.57,4.54,4.54,0,0,1,.09,1.06v3.19h-.76v-3.16a2.51,2.51,0,0,0-.1-.84.8.8,0,0,0-.32-.4.84.84,0,0,0-.5-.15,1.07,1.07,0,0,0-.87.39,2.06,2.06,0,0,0-.32,1.32v2.84Z"/><path class="cls-2" d="M152.8,196.7v-4.5h-.67v-.69h.67V191a2.39,2.39,0,0,1,.14-.92,1,1,0,0,1,.41-.46,1.31,1.31,0,0,1,.69-.16,3.21,3.21,0,0,1,.71.09l-.12.76a2.28,2.28,0,0,0-.44-.05.63.63,0,0,0-.49.17,1,1,0,0,0-.14.64v.48h.87v.69h-.87v4.5Z"/><path class="cls-2" d="M154.7,194.11a3,3,0,0,1,.59-2,1.9,1.9,0,0,1,1.5-.68,1.88,1.88,0,0,1,1.49.68,2.88,2.88,0,0,1,.6,2,3.08,3.08,0,0,1-.59,2.08,2,2,0,0,1-3,0A3,3,0,0,1,154.7,194.11Zm.77,0a2.4,2.4,0,0,0,.39,1.5,1.14,1.14,0,0,0,.95.49,1.13,1.13,0,0,0,.92-.49,2.47,2.47,0,0,0,.38-1.5,2.37,2.37,0,0,0-.39-1.49,1.14,1.14,0,0,0-.95-.49,1.13,1.13,0,0,0-.92.49A2.46,2.46,0,0,0,155.47,194.1Z"/><path class="cls-2" d="M164.08,195.9a2.11,2.11,0,0,1-.64.6,1.18,1.18,0,0,1-.63.21,1.28,1.28,0,0,1-1-.53,2.61,2.61,0,0,1-.51-1.66,3.64,3.64,0,0,1,.37-1.6,3,3,0,0,1,.86-1.15,1.65,1.65,0,0,1,1-.36,1.19,1.19,0,0,1,.68.22,1.82,1.82,0,0,1,.57.67l.14-.75h.76l-.61,3.27c-.08.45-.12.71-.12.76a.36.36,0,0,0,.08.23.29.29,0,0,0,.21.09,1.2,1.2,0,0,0,.64-.34,2.62,2.62,0,0,0,.7-1,3.44,3.44,0,0,0,.28-1.38,3.18,3.18,0,0,0-.39-1.57,2.81,2.81,0,0,0-1.09-1.1,3,3,0,0,0-1.51-.39,3.19,3.19,0,0,0-1.75.49,3.67,3.67,0,0,0-1.28,1.48,5.1,5.1,0,0,0-.49,2.25,4.35,4.35,0,0,0,.44,2,3.08,3.08,0,0,0,1.26,1.27,4.21,4.21,0,0,0,1.94.43,3.74,3.74,0,0,0,1.78-.4,3,3,0,0,0,1.17-1.07h.75a3.35,3.35,0,0,1-.82,1.13,3.93,3.93,0,0,1-1.28.8,5.17,5.17,0,0,1-3.86-.25,3.56,3.56,0,0,1-1.46-1.49,4.89,4.89,0,0,1-.54-2.38,6,6,0,0,1,.59-2.68,4.18,4.18,0,0,1,1.49-1.76,3.84,3.84,0,0,1,2.1-.57,3.56,3.56,0,0,1,1.81.47,3.53,3.53,0,0,1,1.29,1.36,4.07,4.07,0,0,1,.48,2,4,4,0,0,1-.89,2.57,2.13,2.13,0,0,1-1.65.94.79.79,0,0,1-.6-.2A1.16,1.16,0,0,1,164.08,195.9Zm-2-1.33a1.7,1.7,0,0,0,.28,1.05.79.79,0,0,0,.62.37,1.11,1.11,0,0,0,.66-.29,2.23,2.23,0,0,0,.62-.89,3.23,3.23,0,0,0,.25-1.27,1.66,1.66,0,0,0-.28-1,.89.89,0,0,0-.7-.36,1,1,0,0,0-.63.25,2.16,2.16,0,0,0-.57.91A3.51,3.51,0,0,0,162.05,194.57Z"/><path class="cls-2" d="M171.43,194.8l.75.11a2.33,2.33,0,0,1-.65,1.42,1.74,1.74,0,0,1-1.23.49,1.79,1.79,0,0,1-1.45-.69,3.93,3.93,0,0,1,0-4.06,1.83,1.83,0,0,1,1.47-.67,1.66,1.66,0,0,1,1.16.41,2,2,0,0,1,.61,1.23l-.73.12a1.43,1.43,0,0,0-.38-.78.88.88,0,0,0-.64-.26,1.12,1.12,0,0,0-.92.47,2.4,2.4,0,0,0-.37,1.5,2.66,2.66,0,0,0,.35,1.53,1.1,1.1,0,0,0,.9.47,1,1,0,0,0,.74-.31A1.67,1.67,0,0,0,171.43,194.8Z"/><path class="cls-2" d="M175.73,196.06a3.08,3.08,0,0,1-.79.57,2.15,2.15,0,0,1-.86.19,1.57,1.57,0,0,1-1.11-.4,1.46,1.46,0,0,1-.41-1.08,1.6,1.6,0,0,1,.19-.8,1.4,1.4,0,0,1,.54-.54,2.78,2.78,0,0,1,1-.29,5.9,5.9,0,0,0,1.35-.31v-.22a.91.91,0,0,0-1.07-1.06,1.26,1.26,0,0,0-.79.21,1.35,1.35,0,0,0-.38.78l-.74-.12a1.91,1.91,0,0,1,.64-1.21,2.15,2.15,0,0,1,1.39-.38,2.06,2.06,0,0,1,1.1.25,1.07,1.07,0,0,1,.5.62,4.2,4.2,0,0,1,.11,1.08v1.18a12.39,12.39,0,0,0,0,1.55,2,2,0,0,0,.19.62h-.79A1.94,1.94,0,0,1,175.73,196.06Zm-.07-2a4.89,4.89,0,0,1-1.23.33,2.27,2.27,0,0,0-.67.18.65.65,0,0,0-.29.28.82.82,0,0,0-.11.42.75.75,0,0,0,.24.59,1,1,0,0,0,.67.23,1.4,1.4,0,0,0,.73-.2,1.24,1.24,0,0,0,.5-.54,2.27,2.27,0,0,0,.16-1Z"/><path class="cls-2" d="M177.31,195.15l.76-.14a1.23,1.23,0,0,0,.36.82,1.17,1.17,0,0,0,.79.26,1.1,1.1,0,0,0,.76-.23.74.74,0,0,0,.27-.59.59.59,0,0,0-.23-.48,3.8,3.8,0,0,0-.77-.29,5.62,5.62,0,0,1-1.18-.44,1.25,1.25,0,0,1-.46-.48,1.51,1.51,0,0,1,.28-1.77,1.73,1.73,0,0,1,1.23-.41,2,2,0,0,1,.88.17,1.34,1.34,0,0,1,.58.46,1.92,1.92,0,0,1,.27.82l-.74.12a.86.86,0,0,0-1-.85,1.23,1.23,0,0,0-.73.18.6.6,0,0,0-.24.48.54.54,0,0,0,.23.46,4.42,4.42,0,0,0,.82.31,6.85,6.85,0,0,1,1.22.45,1.19,1.19,0,0,1,.43.46,1.47,1.47,0,0,1,.15.69,1.58,1.58,0,0,1-.49,1.21,1.94,1.94,0,0,1-1.35.46A1.74,1.74,0,0,1,177.31,195.15Z"/><path class="cls-2" d="M182.15,196.7v-1H183v1Z"/><path class="cls-2" d="M187.36,195l.78.11a2.23,2.23,0,0,1-.71,1.25,2.06,2.06,0,0,1-2.8-.26,3,3,0,0,1-.58-2,3.08,3.08,0,0,1,.59-2.05,1.86,1.86,0,0,1,1.5-.7,1.79,1.79,0,0,1,1.44.69,3,3,0,0,1,.58,2v.23h-3.33a2.2,2.2,0,0,0,.42,1.32,1.18,1.18,0,0,0,.92.44C186.74,196.09,187.14,195.74,187.36,195Zm-2.49-1.42h2.49a1.86,1.86,0,0,0-.3-1,1.11,1.11,0,0,0-.93-.48,1.1,1.1,0,0,0-.86.4A1.75,1.75,0,0,0,184.87,193.61Z"/><path class="cls-2" d="M192,196.7V196a1.49,1.49,0,0,1-.53.58,1.32,1.32,0,0,1-.7.2,1.7,1.7,0,0,1-1.36-.72,3,3,0,0,1-.58-2,3.91,3.91,0,0,1,.26-1.5,2,2,0,0,1,.68-.92,1.59,1.59,0,0,1,1-.29,1.37,1.37,0,0,1,.69.18,1.49,1.49,0,0,1,.53.53v-2.57h.77v7.16Zm-2.4-2.59a2.49,2.49,0,0,0,.37,1.49,1.06,1.06,0,0,0,.86.49,1,1,0,0,0,.83-.47,2.29,2.29,0,0,0,.35-1.41,2.75,2.75,0,0,0-.35-1.59,1.05,1.05,0,0,0-.89-.5,1,1,0,0,0-.82.48A2.61,2.61,0,0,0,189.59,194.11Z"/><path class="cls-2" d="M196.81,196.7v-.76a2,2,0,0,1-.62.66,1.52,1.52,0,0,1-.8.22,1.51,1.51,0,0,1-.9-.28,1.28,1.28,0,0,1-.5-.68,4.22,4.22,0,0,1-.13-1.13v-3.22h.76v2.88a4.77,4.77,0,0,0,.08,1.07.77.77,0,0,0,.32.43.85.85,0,0,0,.52.17,1.08,1.08,0,0,0,.89-.43,2.18,2.18,0,0,0,.3-1.34v-2.78h.75v5.19Z"/><path class="cls-2" d="M198.91,196.7v-1h.86v1Z"/><path class="cls-2" d="M201.08,196.7v-7.16h.76v4.09l1.79-2.12h1l-1.7,1.93,1.87,3.26h-.93L202.37,194l-.53.6v2.06Z"/><path class="cls-2" d="M205.37,196.7v-7.16h.76v2.57a1.89,1.89,0,0,1,.6-.54,1.64,1.64,0,0,1,.74-.17,1.48,1.48,0,0,1,1.13.43,2.32,2.32,0,0,1,.41,1.58v3.29h-.75v-3.29a1.43,1.43,0,0,0-.26-1,.83.83,0,0,0-.69-.3,1.12,1.12,0,0,0-.84.38,2,2,0,0,0-.34,1.33v2.84Z"/><path class="cls-2" d="M36.34,198.8a10,10,0,0,1-1-2.07,7.39,7.39,0,0,1-.47-2.63,8.58,8.58,0,0,1,1.49-4.68h.55a15.58,15.58,0,0,0-.8,1.78,8.57,8.57,0,0,0-.34,1.39,9.64,9.64,0,0,0-.12,1.52,9.83,9.83,0,0,0,1.26,4.69Z"/><path class="cls-2" d="M39.35,195.54v-2H37.67v-.82h1.68v-1.95h.72v1.95h1.67v.82H40.07v2Z"/><path class="cls-2" d="M43.74,192.81a1.41,1.41,0,0,1-.68-.56,1.59,1.59,0,0,1-.24-.9,1.81,1.81,0,0,1,.51-1.33,1.68,1.68,0,0,1,1.26-.51,1.71,1.71,0,0,1,1.28.52,1.86,1.86,0,0,1,.51,1.35,1.59,1.59,0,0,1-.23.87,1.47,1.47,0,0,1-.68.56,1.72,1.72,0,0,1,.86.68,2.14,2.14,0,0,1,.3,1.17,2.21,2.21,0,0,1-.58,1.56,2.05,2.05,0,0,1-2.9,0,2.24,2.24,0,0,1-.58-1.59,2.13,2.13,0,0,1,.31-1.18A1.53,1.53,0,0,1,43.74,192.81Zm-.39,1.82a1.47,1.47,0,0,0,.37,1.06,1.18,1.18,0,0,0,1.77,0,1.71,1.71,0,0,0,0-2.11,1.18,1.18,0,0,0-.9-.4,1.12,1.12,0,0,0-.87.4A1.47,1.47,0,0,0,43.35,194.63Zm.25-3.31a1.13,1.13,0,0,0,.29.84.92.92,0,0,0,.72.31.94.94,0,0,0,.7-.3,1.1,1.1,0,0,0,.29-.8,1.15,1.15,0,0,0-.3-.82.94.94,0,0,0-.7-.32,1,1,0,0,0-.71.31A1.12,1.12,0,0,0,43.6,191.32Z"/><path class="cls-2" d="M47.36,194.82l.8-.07a1.78,1.78,0,0,0,.41,1,1,1,0,0,0,.76.34,1.18,1.18,0,0,0,.93-.47,2,2,0,0,0,.39-1.29,1.73,1.73,0,0,0-.38-1.19,1.2,1.2,0,0,0-1-.43,1.16,1.16,0,0,0-.64.19,1.22,1.22,0,0,0-.47.51l-.72-.11.6-3.68h3.07v.84H48.7l-.33,1.93a1.74,1.74,0,0,1,2.51.18,2.4,2.4,0,0,1,.57,1.69,2.89,2.89,0,0,1-.57,1.8,1.85,1.85,0,0,1-1.54.75,1.9,1.9,0,0,1-1.35-.53A2.18,2.18,0,0,1,47.36,194.82Z"/><path class="cls-2" d="M52.15,194.82l.79-.07a1.85,1.85,0,0,0,.42,1,1,1,0,0,0,.76.34,1.18,1.18,0,0,0,.93-.47,2,2,0,0,0,.39-1.29,1.73,1.73,0,0,0-.38-1.19,1.2,1.2,0,0,0-1-.43,1.14,1.14,0,0,0-.64.19,1.22,1.22,0,0,0-.47.51l-.72-.11.6-3.68h3.06v.84H53.48l-.33,1.93a1.83,1.83,0,0,1,1.17-.45,1.76,1.76,0,0,1,1.34.63,2.36,2.36,0,0,1,.58,1.69,2.84,2.84,0,0,1-.58,1.8,1.82,1.82,0,0,1-1.53.75,1.9,1.9,0,0,1-1.35-.53A2.18,2.18,0,0,1,52.15,194.82Z"/><path class="cls-2" d="M57.45,198.8h-.54a9.93,9.93,0,0,0,1.25-4.69,9.64,9.64,0,0,0-.12-1.52,9.76,9.76,0,0,0-.34-1.39,17.08,17.08,0,0,0-.79-1.78h.54a8.58,8.58,0,0,1,1.49,4.68,7.46,7.46,0,0,1-.45,2.59A9.22,9.22,0,0,1,57.45,198.8Z"/><path class="cls-2" d="M65.05,196.7h-.76v-5.6a4.48,4.48,0,0,1-.7.6,5.92,5.92,0,0,1-.81.46v-.85a4.79,4.79,0,0,0,1.1-.84,3.22,3.22,0,0,0,.68-1h.49Z"/><path class="cls-2" d="M71,195.85v.85H66.9a2.31,2.31,0,0,1,.33-1.15,6.52,6.52,0,0,1,1.24-1.5,8.45,8.45,0,0,0,1.39-1.56,2,2,0,0,0,.33-1,1.22,1.22,0,0,0-.33-.89,1.17,1.17,0,0,0-1.7,0,1.53,1.53,0,0,0-.34,1.06l-.78-.09a2.35,2.35,0,0,1,.62-1.55,1.89,1.89,0,0,1,1.39-.52,1.7,1.7,0,0,1,1.43.61,2.15,2.15,0,0,1,.49,1.37,2.51,2.51,0,0,1-.38,1.31,10.47,10.47,0,0,1-1.44,1.68c-.46.44-.75.73-.88.89a2.67,2.67,0,0,0-.32.48Z"/><path class="cls-2" d="M74.28,195,75,195c.12.76.46,1.14,1,1.14a1.07,1.07,0,0,0,.69-.25,1.89,1.89,0,0,0,.52-.88,4.37,4.37,0,0,0,.22-1.47v-.17a1.85,1.85,0,0,1-.64.69,1.5,1.5,0,0,1-.81.25,1.65,1.65,0,0,1-1.3-.63,2.48,2.48,0,0,1-.55-1.71,2.58,2.58,0,0,1,.57-1.77,1.75,1.75,0,0,1,1.37-.65,1.82,1.82,0,0,1,1.08.36,2.29,2.29,0,0,1,.76,1.07,5.84,5.84,0,0,1,.28,2,6.85,6.85,0,0,1-.3,2.29,2.44,2.44,0,0,1-.79,1.19,1.83,1.83,0,0,1-1.12.38,1.58,1.58,0,0,1-1.17-.46A2,2,0,0,1,74.28,195Zm3.1-3.16a1.88,1.88,0,0,0-.36-1.21,1,1,0,0,0-.82-.44,1.1,1.1,0,0,0-.87.47,1.91,1.91,0,0,0-.39,1.25,1.69,1.69,0,0,0,.37,1.13,1.09,1.09,0,0,0,1.73,0A1.82,1.82,0,0,0,77.38,191.88Z"/><path class="cls-2" d="M81.38,196.7V195H78.71v-.8l2.81-4.64h.62v4.64H83v.8h-.84v1.72Zm0-2.52V191l-1.92,3.23Z"/><path class="cls-2" d="M87.67,191.29l-.75.07a1.79,1.79,0,0,0-.32-.79,1,1,0,0,0-.73-.34,1.2,1.2,0,0,0-1.06.78,4.56,4.56,0,0,0-.34,2,1.8,1.8,0,0,1,.65-.71,1.5,1.5,0,0,1,.84-.25,1.67,1.67,0,0,1,1.28.64,2.5,2.5,0,0,1,.54,1.69,3.05,3.05,0,0,1-.27,1.3,1.93,1.93,0,0,1-.71.86,1.66,1.66,0,0,1-1,.28,1.84,1.84,0,0,1-1.53-.8,4.47,4.47,0,0,1-.61-2.67,5.34,5.34,0,0,1,.62-3,1.86,1.86,0,0,1,1.59-.88,1.58,1.58,0,0,1,1.17.46A2.08,2.08,0,0,1,87.67,191.29Zm-3.09,3.09a1.91,1.91,0,0,0,.39,1.25,1.13,1.13,0,0,0,.89.47,1,1,0,0,0,.8-.45,1.93,1.93,0,0,0,.35-1.22,1.8,1.8,0,0,0-.35-1.18,1.07,1.07,0,0,0-.85-.42,1.1,1.1,0,0,0-.86.42A1.67,1.67,0,0,0,84.58,194.38Z"/><path class="cls-2" d="M90.93,193.17a5.81,5.81,0,0,1,.51-2.73,1.62,1.62,0,0,1,1.5-.93,1.58,1.58,0,0,1,1.39.75,5.33,5.33,0,0,1,.62,2.91,5.79,5.79,0,0,1-.51,2.72,1.63,1.63,0,0,1-1.51.93,1.69,1.69,0,0,1-1.44-.82A5.3,5.3,0,0,1,90.93,193.17Zm.77,0a5,5,0,0,0,.36,2.33,1,1,0,0,0,1.77,0,5.25,5.25,0,0,0,.35-2.33,5.12,5.12,0,0,0-.36-2.35,1,1,0,0,0-.91-.59,1,1,0,0,0-.86.6A5.31,5.31,0,0,0,91.7,193.17Z"/><path class="cls-2" d="M98.14,196.7V195H95.47v-.8l2.81-4.64h.62v4.64h.84v.8H98.9v1.72Zm0-2.52V191l-1.92,3.23Z"/><path class="cls-2" d="M103.36,196.7h-.76v-5.6a5,5,0,0,1-.7.6,5.92,5.92,0,0,1-.81.46v-.85a4.79,4.79,0,0,0,1.1-.84,3.22,3.22,0,0,0,.68-1h.49Z"/><path class="cls-4" d="M71.48,28.13a4.94,4.94,0,0,1-1.85-.34,4.4,4.4,0,0,1-2.49-2.6,5.79,5.79,0,0,1-.36-2.08A5.71,5.71,0,0,1,67.15,21a5,5,0,0,1,1-1.67,4.44,4.44,0,0,1,1.55-1.07,5,5,0,0,1,1.94-.38,4.46,4.46,0,0,1,1.36.2,5.42,5.42,0,0,1,1,.44l.39-.37H75l.06,3.54H74.5a6.41,6.41,0,0,0-1.13-2.39,2.12,2.12,0,0,0-1.62-.76,2,2,0,0,0-1.81,1.14,6.59,6.59,0,0,0-.62,3.18,8,8,0,0,0,.21,2,4.06,4.06,0,0,0,.55,1.32,2.31,2.31,0,0,0,.87.76,2.39,2.39,0,0,0,1.11.25,2.63,2.63,0,0,0,1.58-.52,4.76,4.76,0,0,0,1.26-1.58l.54.36a6.22,6.22,0,0,1-.62,1.08,3.84,3.84,0,0,1-.8.81,4.23,4.23,0,0,1-1.11.59A4.35,4.35,0,0,1,71.48,28.13Z"/><path class="cls-4" d="M85.81,27.87h-4.9v-.54a4.7,4.7,0,0,0,.8-.13c.31-.07.46-.16.46-.26a.82.82,0,0,0-.06-.31l-.77-2h-3.1l-.24.66c-.08.25-.16.47-.22.67a3.1,3.1,0,0,0-.14.55,1.25,1.25,0,0,0,0,.24c0,.14.1.27.3.37a3.12,3.12,0,0,0,1,.22v.54H75.26v-.54a3,3,0,0,0,.47-.07,1.27,1.27,0,0,0,.42-.16,1.68,1.68,0,0,0,.44-.4,2.19,2.19,0,0,0,.3-.57l1.47-3.85c.49-1.28,1-2.7,1.63-4.25h1.27c.82,2.2,1.47,3.93,1.94,5.21s.87,2.33,1.2,3.17a1.23,1.23,0,0,0,.21.37,1.14,1.14,0,0,0,.36.32,1.53,1.53,0,0,0,.41.17l.43.06Zm-4.73-3.93-1.3-3.5-1.28,3.5Z"/><path class="cls-4" d="M98.24,27.87H93.37v-.54l.53-.06a1.68,1.68,0,0,0,.42-.11.69.69,0,0,0,.34-.28.88.88,0,0,0,.1-.45V19.19l-3.09,8.52h-.8c0-.15-.13-.45-.28-.9l-.36-1.07L88,19.08V25a5.8,5.8,0,0,0,.11,1.28,1.18,1.18,0,0,0,.34.65,1.38,1.38,0,0,0,.56.27,3.05,3.05,0,0,0,.58.15v.54H85.67v-.54l.52-.09a1.34,1.34,0,0,0,.58-.25,1,1,0,0,0,.35-.64,7.38,7.38,0,0,0,.08-1.3V20.24a2.12,2.12,0,0,0-.1-.72,1,1,0,0,0-.3-.46,1.16,1.16,0,0,0-.52-.28,3.35,3.35,0,0,0-.54-.08v-.53h4.14l2.22,6.39L94,19.37c.06-.19.12-.42.18-.68a3.21,3.21,0,0,0,.09-.52h4v.53l-.43.05-.42.11a.53.53,0,0,0-.33.28,1.18,1.18,0,0,0-.08.43v6.87a1,1,0,0,0,.08.41.64.64,0,0,0,.33.29,1.91,1.91,0,0,0,.41.12l.45.07Z"/><path class="cls-4" d="M107.1,23.42a2.38,2.38,0,0,1,.66.75,2.17,2.17,0,0,1,.25,1.07,2.43,2.43,0,0,1-.29,1.25,2,2,0,0,1-.82.8,4.28,4.28,0,0,1-1.32.45,11,11,0,0,1-1.75.13H99.16v-.54l.5-.06a2.35,2.35,0,0,0,.42-.09.67.67,0,0,0,.32-.27,1.12,1.12,0,0,0,.08-.44V19.64a1,1,0,0,0-.07-.41.64.64,0,0,0-.33-.29,2.76,2.76,0,0,0-.46-.15l-.46-.09v-.53h4.89a5,5,0,0,1,2.66.54,1.84,1.84,0,0,1,.81,1.62,2,2,0,0,1-.18.86,1.92,1.92,0,0,1-.52.65,3,3,0,0,1-.75.43,5,5,0,0,1-.92.31v.13a5.25,5.25,0,0,1,1,.24A3.46,3.46,0,0,1,107.1,23.42Zm-2-2.92a1.78,1.78,0,0,0-.42-1.26,1.64,1.64,0,0,0-1.26-.45h-.32l-.33,0v3.59h.33a2,2,0,0,0,1.51-.51A1.94,1.94,0,0,0,105.06,20.5Zm.44,4.66A2.08,2.08,0,0,0,105,23.6a2.22,2.22,0,0,0-1.61-.54H103l-.29,0v3.55a.72.72,0,0,0,.35.43,1.39,1.39,0,0,0,.73.17A1.54,1.54,0,0,0,105,26.7,2.27,2.27,0,0,0,105.5,25.16Z"/><path class="cls-4" d="M117.29,19.25a4.62,4.62,0,0,1,1.06,1.58,5.45,5.45,0,0,1,.39,2.12,6.16,6.16,0,0,1-.33,2,4.79,4.79,0,0,1-1,1.65,4.7,4.7,0,0,1-1.54,1.11,4.93,4.93,0,0,1-2.09.4,4.81,4.81,0,0,1-1.86-.35,4.63,4.63,0,0,1-1.54-1,4.58,4.58,0,0,1-1-1.58,5.3,5.3,0,0,1-.39-2.07,5.88,5.88,0,0,1,.38-2.15,4.91,4.91,0,0,1,1-1.66,4.46,4.46,0,0,1,1.55-1,5.13,5.13,0,0,1,3.8,0A4.39,4.39,0,0,1,117.29,19.25Zm-1.63,6.94a5.82,5.82,0,0,0,.42-1.41A12,12,0,0,0,116.2,23a11,11,0,0,0-.11-1.64,5.26,5.26,0,0,0-.38-1.42,2.61,2.61,0,0,0-.72-1,1.69,1.69,0,0,0-1.12-.38,1.88,1.88,0,0,0-1.74,1.18,7.41,7.41,0,0,0-.6,3.31,11.67,11.67,0,0,0,.13,1.72,5.73,5.73,0,0,0,.41,1.41,2.46,2.46,0,0,0,.72.95,1.7,1.7,0,0,0,1.08.34,1.72,1.72,0,0,0,1.08-.34A2.28,2.28,0,0,0,115.66,26.19Z"/><path class="cls-4" d="M127.72,19.16a4.37,4.37,0,0,1,1.33,1.55,5.06,5.06,0,0,1,.51,2.37,4.75,4.75,0,0,1-.46,2.14,4.24,4.24,0,0,1-1.2,1.5,5.15,5.15,0,0,1-1.72.86,7.17,7.17,0,0,1-2,.29h-4.53v-.54a3.44,3.44,0,0,0,.51,0,1.6,1.6,0,0,0,.41-.08.61.61,0,0,0,.31-.28.87.87,0,0,0,.09-.42V19.64a1.08,1.08,0,0,0-.08-.42.64.64,0,0,0-.32-.31,2,2,0,0,0-.51-.16l-.42-.05v-.53h4.78a7,7,0,0,1,1.64.21A4.88,4.88,0,0,1,127.72,19.16Zm-1.29,7a4.58,4.58,0,0,0,.45-1.31,9.88,9.88,0,0,0,.14-1.74,7.33,7.33,0,0,0-.19-1.75,4.31,4.31,0,0,0-.56-1.36,2.57,2.57,0,0,0-.91-.86,2.47,2.47,0,0,0-1.25-.31h-.5l-.42,0v7.36a1.4,1.4,0,0,0,.06.43.72.72,0,0,0,.21.33,1,1,0,0,0,.35.23,1.74,1.74,0,0,0,.56.07A2.54,2.54,0,0,0,125.6,27,2.23,2.23,0,0,0,126.43,26.12Z"/><path class="cls-4" d="M135.39,27.87h-5v-.54l.51,0a1.67,1.67,0,0,0,.46-.08.67.67,0,0,0,.32-.27,1,1,0,0,0,.08-.43V19.64a1,1,0,0,0-.08-.41.61.61,0,0,0-.32-.29,2.44,2.44,0,0,0-.45-.14,4.64,4.64,0,0,0-.52-.1v-.53h5v.53l-.48.06a2.51,2.51,0,0,0-.48.1.58.58,0,0,0-.33.28,1.18,1.18,0,0,0-.08.43v6.87a.93.93,0,0,0,.09.42.6.6,0,0,0,.32.28,2.33,2.33,0,0,0,.44.12,4.45,4.45,0,0,0,.52.07Z"/><path class="cls-4" d="M146,27.87h-4.9v-.54a4.79,4.79,0,0,0,.81-.13c.3-.07.46-.16.46-.26s0-.08,0-.13a1.84,1.84,0,0,0-.06-.18l-.76-2h-3.11c-.07.19-.15.41-.23.66s-.16.47-.22.67a5,5,0,0,0-.15.55c0,.11,0,.19,0,.24s.1.27.31.37a3,3,0,0,0,1,.22v.54h-3.69v-.54a3.27,3.27,0,0,0,.48-.07,1.21,1.21,0,0,0,.41-.16,1.68,1.68,0,0,0,.44-.4,2.19,2.19,0,0,0,.3-.57l1.47-3.85c.5-1.28,1-2.7,1.64-4.25h1.26c.83,2.2,1.48,3.93,1.95,5.21s.86,2.33,1.19,3.17a1.88,1.88,0,0,0,.21.37,1.42,1.42,0,0,0,.36.32,1.6,1.6,0,0,0,.42.17l.42.06Zm-4.72-3.93-1.3-3.5-1.29,3.5Z"/><path class="cls-4" d="M159.11,27.87h-4.9v-.54a4.79,4.79,0,0,0,.81-.13c.3-.07.46-.16.46-.26a.62.62,0,0,0,0-.13l-.05-.18-.77-2h-3.11c-.07.19-.14.41-.23.66s-.16.47-.22.67a5,5,0,0,0-.15.55c0,.11,0,.19,0,.24s.1.27.31.37a3,3,0,0,0,1,.22v.54h-3.69v-.54a3.27,3.27,0,0,0,.48-.07,1.21,1.21,0,0,0,.41-.16,1.68,1.68,0,0,0,.44-.4,2.19,2.19,0,0,0,.3-.57l1.47-3.85c.5-1.28,1-2.7,1.64-4.25h1.26c.83,2.2,1.48,3.93,1.95,5.21s.87,2.33,1.19,3.17a1.88,1.88,0,0,0,.21.37,1.42,1.42,0,0,0,.36.32,1.6,1.6,0,0,0,.42.17l.42.06Zm-4.72-3.93-1.3-3.5-1.29,3.5Z"/><path class="cls-4" d="M167.29,19.16a4.37,4.37,0,0,1,1.33,1.55,5.06,5.06,0,0,1,.51,2.37,4.75,4.75,0,0,1-.46,2.14,4.24,4.24,0,0,1-1.2,1.5,5.24,5.24,0,0,1-1.72.86,7.17,7.17,0,0,1-2,.29h-4.53v-.54a3.44,3.44,0,0,0,.51,0,1.6,1.6,0,0,0,.41-.08.61.61,0,0,0,.31-.28.87.87,0,0,0,.09-.42V19.64a1.08,1.08,0,0,0-.08-.42.64.64,0,0,0-.32-.31,2,2,0,0,0-.52-.16l-.41-.05v-.53H164a7,7,0,0,1,1.64.21A4.88,4.88,0,0,1,167.29,19.16Zm-1.29,7a4.58,4.58,0,0,0,.45-1.31,9.88,9.88,0,0,0,.14-1.74,7.33,7.33,0,0,0-.19-1.75,4.31,4.31,0,0,0-.56-1.36,2.57,2.57,0,0,0-.91-.86,2.47,2.47,0,0,0-1.25-.31h-.5l-.42,0v7.36a1.4,1.4,0,0,0,.06.43.72.72,0,0,0,.21.33,1,1,0,0,0,.35.23,1.74,1.74,0,0,0,.56.07,2.54,2.54,0,0,0,1.23-.28A2.23,2.23,0,0,0,166,26.12Z"/><path class="cls-4" d="M179.72,18.71a1.79,1.79,0,0,0-.4.09,1.55,1.55,0,0,0-.39.19,1.52,1.52,0,0,0-.42.36,2.6,2.6,0,0,0-.3.54c-.13.31-.31.77-.55,1.38s-.5,1.29-.81,2.06L176,25.6c-.31.83-.61,1.62-.9,2.38H173.8q-.88-2.36-1.81-4.77t-1.29-3.36a2.65,2.65,0,0,0-.28-.52A2.12,2.12,0,0,0,170,19a3.07,3.07,0,0,0-.38-.18l-.44-.09v-.53H174v.52a5.16,5.16,0,0,0-.93.18c-.16.07-.24.15-.24.25a.88.88,0,0,0,0,.16l.07.23c.13.4.38,1.06.73,2s.88,2.29,1.58,4.15c.43-1.13.78-2.09,1.06-2.87s.53-1.48.75-2.08c.11-.29.19-.56.26-.81a2.53,2.53,0,0,0,.11-.58c0-.14-.1-.26-.29-.36a3.46,3.46,0,0,0-1.08-.22v-.54h3.64Z"/><path class="cls-4" d="M187.87,20.64h-.48a3.9,3.9,0,0,0-.64-1.12,1.67,1.67,0,0,0-.89-.66,2.28,2.28,0,0,0-.53-.06h-1.87v3.74h.93a2.08,2.08,0,0,0,.63-.09,1.15,1.15,0,0,0,.52-.34,1.75,1.75,0,0,0,.3-.56,3.3,3.3,0,0,0,.19-.69h.48v4H186a4.33,4.33,0,0,0-.19-.72,2,2,0,0,0-.3-.6,1.09,1.09,0,0,0-.49-.34,2.19,2.19,0,0,0-.66-.09h-.93V26a3.05,3.05,0,0,0,.07.69.68.68,0,0,0,.22.39.8.8,0,0,0,.43.17,5.11,5.11,0,0,0,.75,0h.54l.54,0a3.67,3.67,0,0,0,.5-.11.69.69,0,0,0,.34-.19,5.84,5.84,0,0,0,.69-1,8.09,8.09,0,0,0,.5-1h.46l-.17,3H179.9v-.54l.48,0a1.7,1.7,0,0,0,.43-.1.59.59,0,0,0,.32-.27.94.94,0,0,0,.09-.43V19.64a1.16,1.16,0,0,0-.07-.41.67.67,0,0,0-.34-.29,1.65,1.65,0,0,0-.46-.15,3.48,3.48,0,0,0-.45-.09v-.53h8Z"/><path class="cls-4" d="M199.58,18.7l-.51.07a1.28,1.28,0,0,0-.59.27,1.09,1.09,0,0,0-.34.63,7.23,7.23,0,0,0-.09,1.32v6.93h-1.13l-5.6-7.5V25a5.92,5.92,0,0,0,.1,1.28,1.25,1.25,0,0,0,.34.65,1.65,1.65,0,0,0,.55.27,5.1,5.1,0,0,0,.59.15v.54H189v-.54a2.86,2.86,0,0,0,.57-.1,1.36,1.36,0,0,0,.53-.24,1,1,0,0,0,.34-.6,6.82,6.82,0,0,0,.09-1.34V20.46a2,2,0,0,0-.1-.65,1.23,1.23,0,0,0-.3-.52,1.67,1.67,0,0,0-.51-.37,3,3,0,0,0-.66-.21v-.54h3.38l4.92,6.56V21.06a5.76,5.76,0,0,0-.11-1.3,1.26,1.26,0,0,0-.34-.64,1.75,1.75,0,0,0-.55-.27l-.58-.15v-.53h3.86Z"/><path class="cls-4" d="M208.5,20.94H208a6.49,6.49,0,0,0-.62-1.33c-.29-.48-.56-.73-.8-.77l-.5,0-.52,0h-.29v7.61a1,1,0,0,0,.08.44.58.58,0,0,0,.32.29,1.88,1.88,0,0,0,.46.13,4.39,4.39,0,0,0,.52.09v.54h-5v-.54l.51,0a1.69,1.69,0,0,0,.46-.1.64.64,0,0,0,.33-.29,1.15,1.15,0,0,0,.08-.44V18.77h-.3l-.51,0-.5,0c-.24,0-.51.29-.8.77a6.07,6.07,0,0,0-.63,1.33h-.49V18.17h8.71Z"/><path class="cls-4" d="M214,27.87h-5v-.54l.5,0a1.59,1.59,0,0,0,.46-.08.59.59,0,0,0,.32-.27.89.89,0,0,0,.09-.43V19.64a.86.86,0,0,0-.09-.41.58.58,0,0,0-.32-.29,2.44,2.44,0,0,0-.45-.14,5,5,0,0,0-.51-.1v-.53h5v.53l-.47.06a2.51,2.51,0,0,0-.48.1.53.53,0,0,0-.33.28,1,1,0,0,0-.08.43v6.87a.93.93,0,0,0,.08.42.67.67,0,0,0,.33.28,2.12,2.12,0,0,0,.44.12,4.33,4.33,0,0,0,.51.07Z"/><path class="cls-4" d="M218.57,28.13a5.12,5.12,0,0,1-1.54-.22,5.61,5.61,0,0,1-1.2-.52l-.44.48h-.54l-.08-3.51h.54c.13.33.28.68.47,1.06a5,5,0,0,0,.66,1,3.85,3.85,0,0,0,.87.75,2.11,2.11,0,0,0,1.11.28,1.79,1.79,0,0,0,1.32-.45,1.55,1.55,0,0,0,.46-1.15,1.28,1.28,0,0,0-.39-.95,3.18,3.18,0,0,0-1.2-.67l-1-.34-.84-.33a2.89,2.89,0,0,1-1.35-1.11,3.13,3.13,0,0,1-.44-1.62,2.78,2.78,0,0,1,.23-1.1,2.86,2.86,0,0,1,.67-.94,3,3,0,0,1,1.07-.63,3.82,3.82,0,0,1,1.42-.25,4.33,4.33,0,0,1,1.4.23,5.65,5.65,0,0,1,1,.45l.39-.41h.55l.05,3.31h-.55a11,11,0,0,0-.44-1.1,5,5,0,0,0-.54-.93,2.68,2.68,0,0,0-.72-.63,1.84,1.84,0,0,0-1-.24,1.54,1.54,0,0,0-1.12.42,1.37,1.37,0,0,0-.43,1,1.26,1.26,0,0,0,.38.95,3.31,3.31,0,0,0,1.17.65l1,.34c.32.11.61.22.86.33a3.07,3.07,0,0,1,1.4,1.06A2.79,2.79,0,0,1,222.3,25a2.89,2.89,0,0,1-.27,1.22,2.79,2.79,0,0,1-.74,1,3.63,3.63,0,0,1-1.17.66A4.56,4.56,0,0,1,218.57,28.13Z"/><path class="cls-4" d="M231.57,20.94h-.49a6.07,6.07,0,0,0-.63-1.33c-.29-.48-.55-.73-.8-.77l-.5,0-.51,0h-.3v7.61a1.19,1.19,0,0,0,.08.44.64.64,0,0,0,.33.29,1.78,1.78,0,0,0,.45.13,5.21,5.21,0,0,0,.52.09v.54h-5v-.54l.52,0a1.69,1.69,0,0,0,.45-.1.57.57,0,0,0,.33-.29,1,1,0,0,0,.08-.44V18.77h-.29l-.51,0-.5,0c-.25,0-.51.29-.8.77a6.07,6.07,0,0,0-.63,1.33h-.5V18.17h8.71Z"/><path class="cls-4" d="M239.16,28.13a5.07,5.07,0,0,1-1.54-.22,5.49,5.49,0,0,1-1.21-.52l-.43.48h-.54l-.09-3.51h.55a10.23,10.23,0,0,0,.47,1.06,5,5,0,0,0,.66,1,3.6,3.6,0,0,0,.86.75,2.14,2.14,0,0,0,1.12.28,1.82,1.82,0,0,0,1.32-.45,1.55,1.55,0,0,0,.46-1.15,1.28,1.28,0,0,0-.39-.95,3.16,3.16,0,0,0-1.21-.67l-1-.34-.83-.33A2.79,2.79,0,0,1,236,22.44a3.13,3.13,0,0,1-.44-1.62,2.78,2.78,0,0,1,.23-1.1,3,3,0,0,1,.66-.94,3.19,3.19,0,0,1,1.07-.63A3.89,3.89,0,0,1,239,17.9a4.24,4.24,0,0,1,1.4.23,5.48,5.48,0,0,1,1,.45l.38-.41h.55l.06,3.31h-.55a11.09,11.09,0,0,0-.45-1.1,5,5,0,0,0-.54-.93,2.5,2.5,0,0,0-.71-.63,1.84,1.84,0,0,0-.95-.24,1.54,1.54,0,0,0-1.12.42,1.38,1.38,0,0,0-.44,1A1.3,1.3,0,0,0,238,21a3.27,3.27,0,0,0,1.18.65l.95.34q.5.16.87.33a3.13,3.13,0,0,1,1.4,1.06,2.79,2.79,0,0,1,.48,1.67,2.9,2.9,0,0,1-.28,1.22,2.77,2.77,0,0,1-.73,1,3.73,3.73,0,0,1-1.17.66A4.6,4.6,0,0,1,239.16,28.13Z"/><path class="cls-4" d="M248.52,28.13a4.91,4.91,0,0,1-1.85-.34,4.19,4.19,0,0,1-1.5-1,4.39,4.39,0,0,1-1-1.59,5.79,5.79,0,0,1-.36-2.08,5.92,5.92,0,0,1,.36-2.09,5,5,0,0,1,1-1.67,4.35,4.35,0,0,1,1.55-1.07,5,5,0,0,1,1.94-.38,4.51,4.51,0,0,1,1.36.2,5.7,5.7,0,0,1,1,.44l.39-.37H252l.06,3.54h-.56a6.56,6.56,0,0,0-1.14-2.39,2.09,2.09,0,0,0-1.62-.76A2,2,0,0,0,247,19.7a6.71,6.71,0,0,0-.62,3.18,8,8,0,0,0,.21,2,4.29,4.29,0,0,0,.56,1.32,2.21,2.21,0,0,0,.86.76,2.44,2.44,0,0,0,1.11.25,2.6,2.6,0,0,0,1.58-.52,4.76,4.76,0,0,0,1.26-1.58l.55.36a6.94,6.94,0,0,1-.62,1.08,3.89,3.89,0,0,1-.81.81,4,4,0,0,1-1.1.59A4.4,4.4,0,0,1,248.52,28.13Z"/><path class="cls-4" d="M264.06,27.87H259.2v-.54l.46,0a1.4,1.4,0,0,0,.42-.08.67.67,0,0,0,.32-.27.89.89,0,0,0,.09-.43V23.17h-3.84v3.27a.91.91,0,0,0,.09.41.61.61,0,0,0,.32.29,1.74,1.74,0,0,0,.41.12,3.84,3.84,0,0,0,.47.07v.54h-4.86v-.54l.47,0a3.49,3.49,0,0,0,.45-.09.56.56,0,0,0,.31-.27,1,1,0,0,0,.09-.43V19.64a.86.86,0,0,0-.08-.41A.64.64,0,0,0,254,19a2.24,2.24,0,0,0-.48-.16l-.44-.09v-.53h4.86v.53a3.58,3.58,0,0,0-.47.07,2.72,2.72,0,0,0-.41.1.5.5,0,0,0-.33.28,1.16,1.16,0,0,0-.08.42v2.9h3.84V19.64a1,1,0,0,0-.08-.41.72.72,0,0,0-.33-.28,2.18,2.18,0,0,0-.44-.16,2.85,2.85,0,0,0-.44-.09v-.53h4.86v.53l-.46.06a4.46,4.46,0,0,0-.46.11.53.53,0,0,0-.32.28,1.16,1.16,0,0,0-.08.42v6.87a1,1,0,0,0,.08.41.66.66,0,0,0,.32.29,2,2,0,0,0,.44.13l.48.06Z"/><path class="cls-4" d="M273.23,19.25a4.62,4.62,0,0,1,1.06,1.58,5.45,5.45,0,0,1,.39,2.12,6.16,6.16,0,0,1-.33,2,4.54,4.54,0,0,1-2.48,2.76,5,5,0,0,1-2.1.4,4.85,4.85,0,0,1-1.86-.35,4.63,4.63,0,0,1-1.54-1,4.73,4.73,0,0,1-1-1.58,5.3,5.3,0,0,1-.39-2.07,5.88,5.88,0,0,1,.38-2.15,5.07,5.07,0,0,1,1-1.66,4.55,4.55,0,0,1,1.55-1,5.13,5.13,0,0,1,3.8,0A4.39,4.39,0,0,1,273.23,19.25Zm-1.62,6.94a5.82,5.82,0,0,0,.41-1.41,12,12,0,0,0,.12-1.78,11,11,0,0,0-.11-1.64,5.66,5.66,0,0,0-.37-1.42,2.73,2.73,0,0,0-.73-1,1.69,1.69,0,0,0-1.12-.38,1.88,1.88,0,0,0-1.74,1.18,7.43,7.43,0,0,0-.59,3.31,10.45,10.45,0,0,0,.13,1.72,5.34,5.34,0,0,0,.4,1.41,2.39,2.39,0,0,0,.73.95,1.67,1.67,0,0,0,1.07.34,1.72,1.72,0,0,0,1.08-.34A2.39,2.39,0,0,0,271.61,26.19Z"/><path class="cls-4" d="M283.87,19.25a4.75,4.75,0,0,1,1.05,1.58,5.45,5.45,0,0,1,.39,2.12,6.16,6.16,0,0,1-.33,2,4.64,4.64,0,0,1-1,1.65,4.56,4.56,0,0,1-1.53,1.11,5,5,0,0,1-2.1.4,4.8,4.8,0,0,1-1.85-.35,4.43,4.43,0,0,1-1.54-1A4.75,4.75,0,0,1,276,25.19a5.49,5.49,0,0,1-.38-2.07A5.88,5.88,0,0,1,276,21a5.09,5.09,0,0,1,1-1.66,4.37,4.37,0,0,1,1.55-1,4.89,4.89,0,0,1,1.91-.37,5,5,0,0,1,1.89.36A4.39,4.39,0,0,1,283.87,19.25Zm-1.63,6.94a5.4,5.4,0,0,0,.41-1.41,10.69,10.69,0,0,0,.13-1.78,12.55,12.55,0,0,0-.11-1.64,5.66,5.66,0,0,0-.38-1.42,2.61,2.61,0,0,0-.72-1,1.69,1.69,0,0,0-1.12-.38,1.86,1.86,0,0,0-1.74,1.18,7.41,7.41,0,0,0-.6,3.31,10.45,10.45,0,0,0,.13,1.72,5.33,5.33,0,0,0,.41,1.41,2.46,2.46,0,0,0,.72.95,1.87,1.87,0,0,0,2.15,0A2.39,2.39,0,0,0,282.24,26.19Z"/><path class="cls-4" d="M294.66,24.76l-.18,3.11H286.2v-.54l.52-.06a1.59,1.59,0,0,0,.39-.09.61.61,0,0,0,.32-.26,1,1,0,0,0,.09-.44V19.64a1.16,1.16,0,0,0-.07-.41.67.67,0,0,0-.34-.29,1.86,1.86,0,0,0-.47-.15l-.44-.09v-.53h4.93v.53l-.47.06a2.51,2.51,0,0,0-.48.1.53.53,0,0,0-.33.28,1,1,0,0,0-.08.43V26a4.34,4.34,0,0,0,.05.71A.62.62,0,0,0,290,27a1,1,0,0,0,.46.17c.2,0,.47,0,.82,0a7.82,7.82,0,0,0,1-.06,1.16,1.16,0,0,0,.69-.28,4.61,4.61,0,0,0,.66-1,9.56,9.56,0,0,0,.54-1.16Z"/><path class="cls-4" d="M209.85,94V86.82h2.28l1.36,4.88,1.35-4.88h2.27V94H215.7V88.34L214.21,94h-1.46l-1.49-5.64V94Z"/><path class="cls-4" d="M225.4,94h-1.65l-.66-1.63h-3L219.47,94h-1.61l2.93-7.16h1.6Zm-2.8-2.83-1-2.66-1,2.66Z"/><path class="cls-4" d="M226.16,94V86.82h1.51V94Z"/><path class="cls-4" d="M229.16,94v-7.1h1.52v5.89h3.77V94Z"/><path class="cls-4" d="M235.49,94V86.82H237V94Z"/><path class="cls-4" d="M238.47,94V86.82h1.47L243,91.6V86.82h1.41V94h-1.52l-3-4.67V94Z"/><path class="cls-4" d="M249.53,91.35V90.14h3.27V93a4.4,4.4,0,0,1-1.38.78,5.28,5.28,0,0,1-1.83.33,4.35,4.35,0,0,1-2.06-.47,3.13,3.13,0,0,1-1.32-1.35,4.22,4.22,0,0,1-.44-1.91,3.94,3.94,0,0,1,.5-2,3.18,3.18,0,0,1,1.44-1.34,4.15,4.15,0,0,1,1.8-.35,3.65,3.65,0,0,1,2.18.56,2.51,2.51,0,0,1,1,1.54l-1.51.27a1.54,1.54,0,0,0-.6-.83,1.82,1.82,0,0,0-1.09-.31,2.13,2.13,0,0,0-1.59.6,2.47,2.47,0,0,0-.58,1.79,2.75,2.75,0,0,0,.59,1.91,2.06,2.06,0,0,0,1.56.63,2.94,2.94,0,0,0,1-.17,3.34,3.34,0,0,0,.82-.44v-.9Z"/><path class="cls-4" d="M263.51,94h-1.65l-.66-1.63h-3L257.58,94H256l2.92-7.16h1.61Zm-2.8-2.83-1-2.66-1,2.66Z"/><path class="cls-4" d="M264.31,86.82h2.77a5.25,5.25,0,0,1,1.43.14,2.44,2.44,0,0,1,1.13.66,3,3,0,0,1,.72,1.15,5,5,0,0,1,.25,1.7,4.59,4.59,0,0,1-.23,1.52,3.12,3.12,0,0,1-.81,1.26,2.68,2.68,0,0,1-1.06.58,4.93,4.93,0,0,1-1.35.15h-2.85ZM265.83,88v4.74H267a4.09,4.09,0,0,0,.92-.07,1.44,1.44,0,0,0,.61-.29,1.57,1.57,0,0,0,.4-.7A4.52,4.52,0,0,0,269,90.4a4.18,4.18,0,0,0-.15-1.27,1.67,1.67,0,0,0-.43-.69,1.47,1.47,0,0,0-.71-.34,6.63,6.63,0,0,0-1.24-.07Z"/><path class="cls-4" d="M271.89,86.82h2.77a5.2,5.2,0,0,1,1.43.14,2.47,2.47,0,0,1,1.14.66,3.06,3.06,0,0,1,.71,1.15,5,5,0,0,1,.25,1.7A4.59,4.59,0,0,1,278,92a3.21,3.21,0,0,1-.8,1.26,2.73,2.73,0,0,1-1.07.58,4.85,4.85,0,0,1-1.34.15h-2.86ZM273.41,88v4.74h1.13a4.09,4.09,0,0,0,.92-.07,1.44,1.44,0,0,0,.61-.29,1.49,1.49,0,0,0,.4-.7,4.52,4.52,0,0,0,.15-1.31,4.18,4.18,0,0,0-.15-1.27,1.57,1.57,0,0,0-.43-.69,1.47,1.47,0,0,0-.71-.34,6.63,6.63,0,0,0-1.24-.07Z"/><path class="cls-4" d="M279.48,94V86.82h3.2a5.73,5.73,0,0,1,1.75.19,1.73,1.73,0,0,1,.87.69,2,2,0,0,1,.33,1.13,1.88,1.88,0,0,1-.5,1.33,2.41,2.41,0,0,1-1.48.66,3.48,3.48,0,0,1,.81.6,8.19,8.19,0,0,1,.86,1.16l.92,1.4h-1.82l-1.09-1.56a9.65,9.65,0,0,0-.8-1,1.14,1.14,0,0,0-.46-.3,2.72,2.72,0,0,0-.76-.08H281v3ZM281,89.85h1.12a6,6,0,0,0,1.37-.09.82.82,0,0,0,.42-.3,1,1,0,0,0,.16-.54.79.79,0,0,0-.21-.58.92.92,0,0,0-.57-.29c-.12,0-.49,0-1.11,0H281Z"/><path class="cls-4" d="M287.06,94V86.82h5.57V88h-4.05v1.59h3.77v1.2h-3.77v2h4.2V94Z"/><path class="cls-4" d="M293.68,91.65l1.48-.14a1.61,1.61,0,0,0,.54,1,1.68,1.68,0,0,0,1.1.33,1.72,1.72,0,0,0,1.1-.29.87.87,0,0,0,.37-.69.63.63,0,0,0-.15-.43,1.22,1.22,0,0,0-.55-.31c-.18-.06-.58-.17-1.21-.32a4.2,4.2,0,0,1-1.72-.71,1.82,1.82,0,0,1-.69-1.44,1.77,1.77,0,0,1,.33-1,1.94,1.94,0,0,1,.93-.72,3.89,3.89,0,0,1,1.48-.25,3.22,3.22,0,0,1,2.13.59,2.06,2.06,0,0,1,.76,1.58l-1.52.06a1.23,1.23,0,0,0-.42-.79,1.51,1.51,0,0,0-1-.25,1.84,1.84,0,0,0-1,.26.52.52,0,0,0-.24.45.54.54,0,0,0,.23.43,4.2,4.2,0,0,0,1.39.48,8.29,8.29,0,0,1,1.64.51,2.11,2.11,0,0,1,.83.73,2.06,2.06,0,0,1,.3,1.14,2,2,0,0,1-.36,1.15,2.12,2.12,0,0,1-1,.8,4.37,4.37,0,0,1-1.64.26,3.36,3.36,0,0,1-2.19-.62A2.69,2.69,0,0,1,293.68,91.65Z"/><path class="cls-4" d="M300.68,91.65l1.48-.14a1.49,1.49,0,0,0,1.64,1.37,1.75,1.75,0,0,0,1.11-.29.89.89,0,0,0,.37-.69.63.63,0,0,0-.16-.43,1.17,1.17,0,0,0-.55-.31c-.17-.06-.58-.17-1.21-.32a4.21,4.21,0,0,1-1.71-.71,1.82,1.82,0,0,1-.69-1.44,1.76,1.76,0,0,1,.32-1,2,2,0,0,1,.94-.72,3.85,3.85,0,0,1,1.48-.25,3.26,3.26,0,0,1,2.13.59,2.08,2.08,0,0,1,.75,1.58l-1.52.06a1.15,1.15,0,0,0-.42-.79,1.51,1.51,0,0,0-1-.25,1.8,1.8,0,0,0-1,.26.52.52,0,0,0-.24.45.53.53,0,0,0,.22.43,4.29,4.29,0,0,0,1.4.48,8.37,8.37,0,0,1,1.63.51,2,2,0,0,1,1.13,1.87,2.07,2.07,0,0,1-.35,1.15,2.1,2.1,0,0,1-1,.8,4.32,4.32,0,0,1-1.63.26,3.33,3.33,0,0,1-2.19-.62A2.7,2.7,0,0,1,300.68,91.65Z"/><image width="368" height="359" transform="translate(18.67 6.36) scale(0.11)" xlink:href="../../../../../xampp/htdocs/casproject/public/uploads/avatar/logo.png"/><rect class="cls-5" y="49.33" width="336" height="2.4"/><rect class="cls-5" y="179.58" width="336" height="0.6"/><path class="cls-5" d="M246.2,198.68a3.92,3.92,0,0,1-2.82-1.17l-.06-.06a4,4,0,0,1,0-5.53h0l.06-.06a4,4,0,0,1,5.63,0h0l.05.06a4,4,0,0,1,0,5.53h0l-.05.06a4,4,0,0,1-2.83,1.17Zm-2.51-1.38a3.63,3.63,0,0,0,5,0l.05-.06a3.6,3.6,0,0,0,0-5.09l0,0-.06-.06a3.61,3.61,0,0,0-5,0l0,0a3.58,3.58,0,0,0,0,5.09l0,0Z"/><path class="cls-5" d="M246.2,193.3a4,4,0,0,1-2.82-1.17l-.06-.06v-.15l.06-.06a4,4,0,0,1,5.63,0h0l.05,0v.16l-.05.06a4,4,0,0,1-2.83,1.17ZM243.77,192a3.62,3.62,0,0,0,4.86,0,3.62,3.62,0,0,0-4.86,0Z"/><path class="cls-5" d="M246.2,198.68a3.92,3.92,0,0,1-2.82-1.17l-.06,0v-.16l.05-.05a4,4,0,0,1,5.64,0l0,0,.05.05v.16l-.05,0a4,4,0,0,1-2.83,1.17Zm-2.43-1.3a3.64,3.64,0,0,0,4.86,0,3.62,3.62,0,0,0-4.86,0Z"/><path class="cls-5" d="M246.2,198.68c-1.17,0-2.09-1.75-2.09-4s.92-4,2.09-4,2.09,1.75,2.09,4S247.37,198.68,246.2,198.68Zm0-7.62c-.93,0-1.72,1.66-1.72,3.62s.79,3.63,1.72,3.63,1.72-1.66,1.72-3.63-.79-3.62-1.72-3.62Z"/><path class="cls-5" d="M242.39,194.5H250v.37h-7.63Z"/><path class="cls-5" d="M246,190.87h.37v7.63H246Z"/><g id="Page-1"><g id="_001---Landline-Phone" data-name="001---Landline-Phone"><path id="Shape" class="cls-5" d="M27.53,192.65a1.5,1.5,0,1,0,1.5,1.5A1.5,1.5,0,0,0,27.53,192.65Zm0,2a.5.5,0,0,1-.5-.5.5.5,0,0,1,1,0A.5.5,0,0,1,27.53,194.65Z"/><circle id="Oval" class="cls-5" cx="27.53" cy="194.15" r="0.17"/><path id="Shape-2" data-name="Shape" class="cls-5" d="M32.14,191.13a7.39,7.39,0,0,0-4.61-1.48,7.39,7.39,0,0,0-4.61,1.48.17.17,0,0,0-.05.18l.55,1.49a.17.17,0,0,0,.2.12l1.61-.38a.15.15,0,0,0,.13-.16v-.74a.52.52,0,0,1,.21-.41,3.6,3.6,0,0,1,3.92,0,.52.52,0,0,1,.21.41v.74a.15.15,0,0,0,.13.16l1.61.38a.17.17,0,0,0,.19-.11l.56-1.5a.17.17,0,0,0,0-.18Z"/><path id="Shape-3" data-name="Shape" class="cls-5" d="M30.13,193l-.38-.09a.5.5,0,0,1-.39-.49v-.74a.15.15,0,0,0-.07-.14,3.24,3.24,0,0,0-3.52,0,.15.15,0,0,0-.07.14v.74a.5.5,0,0,1-.39.49l-.38.09-1.71,2.69a.29.29,0,0,0,0,.09v1.07a.17.17,0,0,0,.16.17H31.7a.17.17,0,0,0,.16-.17v-1.07a.29.29,0,0,0,0-.09Zm-2.6,3a1.84,1.84,0,1,1,1.83-1.83A1.83,1.83,0,0,1,27.53,196Z"/></g></g><path class="cls-5" d="M141.27,190.66l-2.65,2.64,2.65,2.63a.73.73,0,0,0,.08-.33V191A.73.73,0,0,0,141.27,190.66Z"/><path class="cls-5" d="M140.58,190.22h-7.21a.73.73,0,0,0-.33.08l3.39,3.37a.77.77,0,0,0,1.09,0l3.39-3.37A.73.73,0,0,0,140.58,190.22Z"/><path class="cls-5" d="M132.68,190.66a.73.73,0,0,0-.08.33v4.61a.73.73,0,0,0,.08.33l2.65-2.63Z"/><path class="cls-5" d="M138.26,193.66l-.38.37a1.28,1.28,0,0,1-1.81,0l-.38-.37L133,196.29a.73.73,0,0,0,.33.08h7.21a.73.73,0,0,0,.33-.08Z"/></svg>